if (_typeface_js && _typeface_js.loadFace) _typeface_js.loadFace({"glyphs":{"0":{"ha":550,"x_min":0,"x_max":0,"o":"m 196 224 b 275 128 196 154 226 128 b 354 224 324 128 354 154 l 354 749 b 275 844 354 818 324 844 b 196 749 226 844 196 818 m 43 739 b 275 983 43 894 125 983 b 507 739 425 983 507 894 l 507 233 b 275 -11 507 78 425 -11 b 43 233 125 -11 43 78 "},"1":{"ha":550,"x_min":0,"x_max":0,"o":"m 150 850 b 318 972 268 850 294 907 l 421 972 l 421 0 l 268 0 l 268 742 l 150 742 "},"2":{"ha":550,"x_min":0,"x_max":0,"o":"m 358 733 b 279 844 358 821 328 844 b 200 749 231 844 200 818 l 200 644 l 56 644 l 56 739 b 283 983 56 894 133 983 b 511 739 433 983 511 894 b 207 160 511 433 207 319 b 208 139 207 153 207 146 l 497 139 l 497 0 l 56 0 l 56 119 b 358 733 56 406 358 453 "},"3":{"ha":550,"x_min":0,"x_max":0,"o":"m 350 733 b 271 844 350 821 319 844 b 192 749 222 844 192 818 l 192 686 l 47 686 l 47 739 b 275 983 47 894 125 983 b 503 739 425 983 503 894 l 503 714 b 396 514 503 610 469 544 b 503 310 472 481 503 408 l 503 233 b 275 -11 503 78 425 -11 b 47 233 125 -11 47 78 l 47 314 l 192 314 l 192 224 b 271 128 192 154 222 128 b 350 238 319 128 350 151 l 350 314 b 250 438 350 404 319 438 l 199 438 l 199 576 l 258 576 b 350 679 315 576 350 601 "},"4":{"ha":550,"x_min":0,"x_max":0,"o":"m 19 315 l 297 972 l 464 972 l 464 315 l 536 315 l 536 176 l 464 176 l 464 0 l 314 0 l 314 176 l 19 176 m 314 315 l 314 681 l 160 315 "},"5":{"ha":550,"x_min":0,"x_max":0,"o":"m 193 314 l 193 224 b 272 129 193 154 224 129 b 351 224 321 129 351 154 l 351 438 b 272 533 351 507 321 533 b 193 438 224 533 193 507 l 193 408 l 49 408 l 76 972 l 479 972 l 479 833 l 214 833 l 201 601 b 335 672 229 647 274 672 b 504 450 447 672 504 593 l 504 233 b 276 -11 504 78 426 -11 b 49 233 126 -11 49 78 l 49 314 "},"6":{"ha":550,"x_min":0,"x_max":0,"o":"m 46 731 b 279 983 46 894 121 983 b 507 739 429 983 507 894 l 507 714 l 363 714 l 363 749 b 283 844 363 818 332 844 b 199 725 229 844 199 818 l 199 547 b 340 633 225 603 272 633 b 510 411 453 633 510 554 l 510 233 b 278 -11 510 78 428 -11 b 46 233 128 -11 46 78 m 278 494 b 199 399 229 494 199 468 l 199 224 b 278 129 199 154 229 129 b 357 224 326 129 357 154 l 357 399 b 278 494 357 468 326 494 "},"7":{"ha":550,"x_min":0,"x_max":0,"o":"m 504 972 l 504 839 l 279 0 l 126 0 l 350 833 l 46 833 l 46 972 "},"8":{"ha":550,"x_min":0,"x_max":0,"o":"m 514 233 b 275 -11 514 78 429 -11 b 36 233 121 -11 36 78 l 36 310 b 131 513 36 403 64 475 b 36 708 67 547 36 613 l 36 739 b 275 983 36 894 121 983 b 514 739 429 983 514 894 l 514 708 b 419 513 514 613 482 547 b 514 310 486 475 514 403 l 514 233 m 189 238 b 275 128 189 151 226 128 b 361 238 324 128 360 151 l 361 328 b 275 438 361 404 329 438 b 189 328 221 438 189 404 l 189 238 m 189 679 b 275 576 189 601 225 576 b 361 679 324 576 361 601 l 361 733 b 275 844 361 821 324 844 b 189 733 226 844 189 821 "},"9":{"ha":550,"x_min":0,"x_max":0,"o":"m 504 242 b 271 -11 504 78 429 -11 b 43 233 121 -11 43 78 l 43 258 l 188 258 l 188 224 b 267 128 188 154 218 128 b 351 247 321 128 351 154 l 351 425 b 210 339 325 369 278 339 b 40 561 97 339 40 418 l 40 739 b 272 983 40 894 122 983 b 504 739 422 983 504 894 m 272 478 b 351 574 321 478 351 504 l 351 749 b 272 843 351 818 321 843 b 193 749 224 843 193 818 l 193 574 b 272 478 193 504 224 478 "}," ":{"ha":215,"x_min":0,"x_max":0,"o":""},"#":{"ha":569,"x_min":0,"x_max":0,"o":"m 304 278 l 214 278 l 185 0 l 60 0 l 89 278 l 21 278 l 32 386 l 100 386 l 126 640 l 57 640 l 68 749 l 138 749 l 161 972 l 286 972 l 263 749 l 353 749 l 376 972 l 501 972 l 478 749 l 549 749 l 538 640 l 467 640 l 440 386 l 511 386 l 500 278 l 429 278 l 400 0 l 275 0 m 225 386 l 315 386 l 342 640 l 251 640 "},"$":{"ha":550,"x_min":0,"x_max":0,"o":"m 51 725 b 213 963 51 856 106 939 l 213 1035 l 338 1035 l 338 963 b 501 725 446 940 501 857 l 501 694 l 357 694 l 357 735 b 281 831 357 804 329 831 b 204 735 232 831 204 804 b 503 247 204 535 503 525 b 338 8 503 115 446 31 l 338 -62 l 213 -62 l 213 8 b 47 247 103 31 47 115 l 47 314 l 192 314 l 192 238 b 271 143 192 168 222 143 b 350 238 319 143 350 168 b 51 725 350 438 51 447 "},"%":{"ha":871,"x_min":0,"x_max":0,"o":"m 144 497 b 194 436 144 454 163 436 b 244 497 225 436 244 454 l 244 831 b 194 892 244 874 225 892 b 144 831 163 892 144 874 m 47 824 b 194 979 47 924 99 979 b 342 824 290 979 342 924 l 342 504 b 194 349 342 404 290 349 b 47 504 99 349 47 404 m 578 972 l 668 972 l 285 0 l 194 0 m 626 142 b 676 81 626 99 644 81 b 726 142 707 81 726 99 l 726 475 b 676 536 726 518 707 536 b 626 475 644 536 626 518 m 529 468 b 676 624 529 568 581 624 b 824 468 772 624 824 568 l 824 149 b 676 -7 824 49 772 -7 b 529 149 581 -7 529 49 "},"&":{"ha":575,"x_min":0,"x_max":0,"o":"m 57 310 b 163 514 57 408 88 481 b 57 714 90 544 57 610 l 57 732 b 285 972 57 888 132 972 l 460 972 l 460 833 l 288 833 b 210 739 239 833 210 808 l 210 679 b 301 576 210 601 244 576 l 368 576 l 368 685 l 521 685 l 521 576 l 561 576 l 561 438 l 521 438 l 521 118 b 538 0 521 71 522 36 l 382 0 b 368 76 375 19 371 33 b 226 -11 342 19 294 -11 b 57 211 114 -11 57 68 l 57 310 m 210 224 b 289 128 210 154 240 128 b 368 213 335 128 365 151 l 368 438 l 310 438 b 210 314 240 438 210 404 l 210 224 "},"'":{"ha":250,"x_min":0,"x_max":0,"o":"m 51 972 l 199 972 l 176 686 l 72 686 "},"(":{"ha":349,"x_min":0,"x_max":0,"o":"m 326 972 l 326 847 l 289 847 b 218 760 240 847 218 829 l 218 213 b 289 125 218 143 240 125 l 326 125 l 326 0 l 279 0 b 65 213 126 0 65 57 l 65 760 b 279 972 65 915 126 972 "},")":{"ha":349,"x_min":0,"x_max":0,"o":"m 69 972 b 283 760 222 972 283 915 l 283 213 b 69 0 283 57 222 0 l 22 0 l 22 125 l 60 125 b 131 213 108 125 131 143 l 131 760 b 60 847 131 829 108 847 l 22 847 l 22 972 "},"*":{"ha":550,"x_min":0,"x_max":0,"o":"m 249 743 l 213 972 l 338 972 l 301 743 l 508 847 l 547 729 l 319 690 l 482 528 l 382 454 l 275 660 l 168 454 l 68 528 l 231 690 l 3 729 l 42 847 "},"+":{"ha":550,"x_min":0,"x_max":0,"o":"m 329 540 l 515 540 l 515 432 l 329 432 l 329 242 l 221 242 l 221 432 l 35 432 l 35 540 l 221 540 l 221 728 l 329 728 "},",":{"ha":258,"x_min":0,"x_max":0,"o":"m 56 0 l 56 147 l 203 147 l 203 15 l 136 -139 l 74 -139 l 114 0 "},"-":{"ha":375,"x_min":0,"x_max":0,"o":"m 49 556 l 326 556 l 326 417 l 49 417 "},".":{"ha":258,"x_min":0,"x_max":0,"o":"m 203 147 l 203 0 l 56 0 l 56 147 "},"/":{"ha":529,"x_min":0,"x_max":0,"o":"m 390 972 l 522 972 l 139 0 l 7 0 "},":":{"ha":258,"x_min":0,"x_max":0,"o":"m 203 147 l 203 0 l 56 0 l 56 147 m 203 676 l 203 529 l 56 529 l 56 676 "},";":{"ha":258,"x_min":0,"x_max":0,"o":"m 56 0 l 56 147 l 203 147 l 203 15 l 136 -139 l 74 -139 l 114 0 m 203 676 l 203 529 l 56 529 l 56 676 "},"<":{"ha":550,"x_min":0,"x_max":0,"o":"m 42 432 l 42 540 l 494 707 l 494 597 l 183 486 l 494 375 l 494 265 "},"=":{"ha":550,"x_min":0,"x_max":0,"o":"m 501 428 l 501 319 l 49 319 l 49 428 m 501 653 l 501 544 l 49 544 l 49 653 "},">":{"ha":550,"x_min":0,"x_max":0,"o":"m 56 265 l 56 375 l 367 486 l 56 597 l 56 707 l 508 540 l 508 432 "},"?":{"ha":500,"x_min":0,"x_max":0,"o":"m 167 215 b 158 275 161 232 158 250 b 325 749 158 488 325 507 b 249 844 325 818 297 844 b 172 749 200 844 172 818 l 172 643 l 28 643 l 28 739 b 253 983 28 894 104 983 b 478 739 401 983 478 894 b 297 269 478 486 297 447 b 303 215 297 251 299 233 m 307 147 l 307 0 l 160 0 l 160 147 "},"@":{"ha":957,"x_min":0,"x_max":0,"o":"m 661 176 b 539 268 590 176 544 203 b 404 185 511 211 465 182 b 279 399 307 188 265 264 l 294 539 b 464 744 308 675 367 749 b 578 658 522 743 560 713 l 586 739 l 719 739 l 678 338 b 706 303 675 314 683 303 b 817 617 783 303 817 475 b 540 910 817 790 733 910 b 164 396 293 910 164 713 b 488 33 164 172 267 33 b 775 128 590 33 678 53 l 764 -6 b 479 -83 672 -67 582 -83 b 33 403 167 -83 33 115 b 546 1028 33 746 203 1028 b 932 619 839 1028 932 844 b 661 176 932 278 768 176 m 414 406 b 474 314 407 342 431 315 b 551 401 515 313 544 338 l 565 533 b 506 611 571 588 543 611 b 426 524 463 613 433 589 "},"A":{"ha":565,"x_min":0,"x_max":0,"o":"m 550 0 l 396 0 l 369 176 l 182 176 l 156 0 l 15 0 l 171 972 l 394 972 m 201 308 l 349 308 l 275 800 "},"B":{"ha":564,"x_min":0,"x_max":0,"o":"m 286 972 b 513 749 444 972 513 899 l 513 714 b 414 518 513 614 482 550 b 528 310 496 486 528 413 l 528 231 b 296 0 528 81 449 0 l 56 0 l 56 972 l 286 972 m 208 438 l 208 139 l 296 139 b 375 235 347 139 375 163 l 375 319 b 276 438 375 410 346 438 m 208 833 l 208 576 l 268 576 b 360 679 325 576 360 601 l 360 733 b 282 833 360 803 336 833 "},"C":{"ha":536,"x_min":0,"x_max":0,"o":"m 499 363 l 499 233 b 271 -11 499 78 421 -11 b 43 233 121 -11 43 78 l 43 739 b 271 983 43 894 121 983 b 499 739 421 983 499 894 l 499 644 l 354 644 l 354 749 b 275 844 354 818 324 844 b 196 749 226 844 196 818 l 196 224 b 275 129 196 154 226 129 b 354 224 324 129 354 154 l 354 363 "},"D":{"ha":567,"x_min":0,"x_max":0,"o":"m 56 972 l 297 972 b 525 732 450 972 525 888 l 525 240 b 297 0 525 85 450 0 l 56 0 m 208 833 l 208 139 l 294 139 b 372 233 343 139 372 164 l 372 739 b 294 833 372 808 343 833 "},"E":{"ha":511,"x_min":0,"x_max":0,"o":"m 208 563 l 418 563 l 418 424 l 208 424 l 208 139 l 472 139 l 472 0 l 56 0 l 56 972 l 472 972 l 472 833 l 208 833 "},"F":{"ha":478,"x_min":0,"x_max":0,"o":"m 208 540 l 406 540 l 406 401 l 208 401 l 208 0 l 56 0 l 56 972 l 460 972 l 460 833 l 208 833 "},"G":{"ha":542,"x_min":0,"x_max":0,"o":"m 285 542 l 499 542 l 499 233 b 271 -11 499 78 421 -11 b 43 233 121 -11 43 78 l 43 739 b 271 983 43 894 121 983 b 499 739 421 983 499 894 l 499 644 l 354 644 l 354 749 b 275 844 354 818 324 844 b 196 749 226 844 196 818 l 196 224 b 275 129 196 154 226 129 b 354 224 324 129 354 154 l 354 403 l 285 403 "},"H":{"ha":593,"x_min":0,"x_max":0,"o":"m 208 0 l 56 0 l 56 972 l 208 972 l 208 556 l 382 556 l 382 972 l 538 972 l 538 0 l 382 0 l 382 417 l 208 417 "},"I":{"ha":264,"x_min":0,"x_max":0,"o":"m 56 972 l 208 972 l 208 0 l 56 0 "},"J":{"ha":356,"x_min":0,"x_max":0,"o":"m 14 139 b 67 138 31 138 50 138 b 154 231 115 138 154 156 l 154 972 l 307 972 l 307 242 b 88 -3 307 47 203 -3 b 14 0 60 -3 39 -3 "},"K":{"ha":575,"x_min":0,"x_max":0,"o":"m 256 388 l 208 299 l 208 0 l 56 0 l 56 972 l 208 972 l 208 549 l 408 972 l 561 972 l 349 539 l 561 0 l 404 0 "},"L":{"ha":471,"x_min":0,"x_max":0,"o":"m 56 972 l 208 972 l 208 139 l 460 139 l 460 0 l 56 0 "},"M":{"ha":751,"x_min":0,"x_max":0,"o":"m 379 282 l 483 972 l 696 972 l 696 0 l 551 0 l 551 697 l 446 0 l 301 0 l 188 688 l 188 0 l 54 0 l 54 972 l 267 972 "},"N":{"ha":593,"x_min":0,"x_max":0,"o":"m 192 704 l 192 0 l 54 0 l 54 972 l 246 972 l 403 390 l 403 972 l 539 972 l 539 0 l 382 0 "},"O":{"ha":550,"x_min":0,"x_max":0,"o":"m 196 224 b 275 128 196 154 226 128 b 354 224 324 128 354 154 l 354 749 b 275 844 354 818 324 844 b 196 749 226 844 196 818 m 43 739 b 275 983 43 894 125 983 b 507 739 425 983 507 894 l 507 233 b 275 -11 507 78 425 -11 b 43 233 125 -11 43 78 "},"P":{"ha":531,"x_min":0,"x_max":0,"o":"m 281 972 b 508 732 433 972 508 888 l 508 606 b 281 365 508 450 433 365 l 208 365 l 208 0 l 56 0 l 56 972 l 281 972 m 208 833 l 208 504 l 281 504 b 356 596 329 504 356 526 l 356 742 b 281 833 356 811 329 833 "},"Q":{"ha":550,"x_min":0,"x_max":0,"o":"m 43 739 b 275 983 43 894 125 983 b 507 739 425 983 507 894 l 507 233 b 478 97 507 179 497 133 b 521 76 485 79 496 76 l 535 76 l 535 -60 l 514 -60 b 382 7 446 -60 403 -35 b 275 -11 351 -4 315 -11 b 43 233 125 -11 43 78 m 196 224 b 275 128 196 154 226 128 b 354 224 324 128 354 154 l 354 749 b 275 844 354 818 324 844 b 196 749 226 844 196 818 "},"R":{"ha":558,"x_min":0,"x_max":0,"o":"m 375 0 b 361 119 367 25 361 40 l 361 272 b 261 396 361 363 331 396 l 208 396 l 208 0 l 56 0 l 56 972 l 286 972 b 513 749 444 972 513 899 l 513 672 b 413 475 513 572 481 507 b 514 268 489 443 514 369 l 514 118 b 531 0 514 71 515 36 m 208 833 l 208 535 l 268 535 b 360 638 325 535 360 560 l 360 733 b 282 833 360 803 336 833 "},"S":{"ha":519,"x_min":0,"x_max":0,"o":"m 36 739 b 261 983 36 894 113 983 b 486 739 410 983 486 894 l 486 708 l 342 708 l 342 749 b 265 844 342 818 314 844 b 189 749 217 844 189 818 b 488 233 189 549 488 511 b 260 -11 488 78 410 -11 b 32 233 110 -11 32 78 l 32 293 l 176 293 l 176 224 b 256 129 176 154 207 129 b 335 224 304 129 335 154 b 36 739 335 424 36 461 "},"T":{"ha":494,"x_min":0,"x_max":0,"o":"m 11 972 l 483 972 l 483 833 l 324 833 l 324 0 l 171 0 l 171 833 l 11 833 "},"U":{"ha":553,"x_min":0,"x_max":0,"o":"m 201 972 l 201 222 b 281 128 201 153 232 128 b 360 222 329 128 360 153 l 360 972 l 504 972 l 504 232 b 276 -12 504 76 426 -12 b 49 232 126 -12 49 76 l 49 972 "},"V":{"ha":558,"x_min":0,"x_max":0,"o":"m 286 179 l 403 972 l 543 972 l 393 0 l 165 0 l 15 972 l 169 972 "},"W":{"ha":782,"x_min":0,"x_max":0,"o":"m 394 518 l 339 0 l 129 0 l 21 972 l 169 972 l 251 206 l 325 972 l 472 972 l 549 200 l 628 972 l 761 972 l 653 0 l 450 0 "},"X":{"ha":597,"x_min":0,"x_max":0,"o":"m 565 972 l 406 500 l 576 0 l 415 0 l 290 385 l 164 0 l 21 0 l 192 500 l 32 972 l 190 972 l 306 614 l 424 972 "},"Y":{"ha":550,"x_min":0,"x_max":0,"o":"m 199 322 l 6 972 l 165 972 l 282 529 l 399 972 l 544 972 l 351 322 l 351 0 l 199 0 "},"Z":{"ha":514,"x_min":0,"x_max":0,"o":"m 479 972 l 479 836 l 189 139 l 479 139 l 479 0 l 32 0 l 32 136 l 322 833 l 46 833 l 46 972 "},"[":{"ha":349,"x_min":0,"x_max":0,"o":"m 65 972 l 318 972 l 318 847 l 218 847 l 218 125 l 318 125 l 318 0 l 65 0 "},"\\":{"ha":529,"x_min":0,"x_max":0,"o":"m 522 0 l 390 0 l 7 972 l 139 972 "},"]":{"ha":349,"x_min":0,"x_max":0,"o":"m 283 0 l 31 0 l 31 125 l 131 125 l 131 847 l 31 847 l 31 972 l 283 972 "},"^":{"ha":550,"x_min":0,"x_max":0,"o":"m 221 972 l 329 972 l 522 542 l 400 542 l 275 833 l 150 542 l 28 542 "},"_":{"ha":694,"x_min":0,"x_max":0,"o":"m 0 -14 l 694 -14 l 694 -125 l 0 -125 "},"`":{"ha":347,"x_min":0,"x_max":0,"o":"m 218 1178 l 313 1024 l 203 1024 l 61 1178 "},"a":{"ha":565,"x_min":0,"x_max":0,"o":"m 550 0 l 396 0 l 369 176 l 182 176 l 156 0 l 15 0 l 171 972 l 394 972 m 201 308 l 349 308 l 275 800 "},"b":{"ha":564,"x_min":0,"x_max":0,"o":"m 286 972 b 513 749 444 972 513 899 l 513 714 b 414 518 513 614 482 550 b 528 310 496 486 528 413 l 528 231 b 296 0 528 81 449 0 l 56 0 l 56 972 l 286 972 m 208 438 l 208 139 l 296 139 b 375 235 347 139 375 163 l 375 319 b 276 438 375 410 346 438 m 208 833 l 208 576 l 268 576 b 360 679 325 576 360 601 l 360 733 b 282 833 360 803 336 833 "},"c":{"ha":536,"x_min":0,"x_max":0,"o":"m 499 363 l 499 233 b 271 -11 499 78 421 -11 b 43 233 121 -11 43 78 l 43 739 b 271 983 43 894 121 983 b 499 739 421 983 499 894 l 499 644 l 354 644 l 354 749 b 275 844 354 818 324 844 b 196 749 226 844 196 818 l 196 224 b 275 129 196 154 226 129 b 354 224 324 129 354 154 l 354 363 "},"d":{"ha":567,"x_min":0,"x_max":0,"o":"m 56 972 l 297 972 b 525 732 450 972 525 888 l 525 240 b 297 0 525 85 450 0 l 56 0 m 208 833 l 208 139 l 294 139 b 372 233 343 139 372 164 l 372 739 b 294 833 372 808 343 833 "},"e":{"ha":511,"x_min":0,"x_max":0,"o":"m 208 563 l 418 563 l 418 424 l 208 424 l 208 139 l 472 139 l 472 0 l 56 0 l 56 972 l 472 972 l 472 833 l 208 833 "},"f":{"ha":478,"x_min":0,"x_max":0,"o":"m 208 540 l 406 540 l 406 401 l 208 401 l 208 0 l 56 0 l 56 972 l 460 972 l 460 833 l 208 833 "},"g":{"ha":542,"x_min":0,"x_max":0,"o":"m 285 542 l 499 542 l 499 233 b 271 -11 499 78 421 -11 b 43 233 121 -11 43 78 l 43 739 b 271 983 43 894 121 983 b 499 739 421 983 499 894 l 499 644 l 354 644 l 354 749 b 275 844 354 818 324 844 b 196 749 226 844 196 818 l 196 224 b 275 129 196 154 226 129 b 354 224 324 129 354 154 l 354 403 l 285 403 "},"h":{"ha":593,"x_min":0,"x_max":0,"o":"m 208 0 l 56 0 l 56 972 l 208 972 l 208 556 l 382 556 l 382 972 l 538 972 l 538 0 l 382 0 l 382 417 l 208 417 "},"i":{"ha":264,"x_min":0,"x_max":0,"o":"m 56 972 l 208 972 l 208 0 l 56 0 "},"j":{"ha":356,"x_min":0,"x_max":0,"o":"m 14 139 b 67 138 31 138 50 138 b 154 231 115 138 154 156 l 154 972 l 307 972 l 307 242 b 88 -3 307 47 203 -3 b 14 0 60 -3 39 -3 "},"k":{"ha":575,"x_min":0,"x_max":0,"o":"m 256 388 l 208 299 l 208 0 l 56 0 l 56 972 l 208 972 l 208 549 l 408 972 l 561 972 l 349 539 l 561 0 l 404 0 "},"l":{"ha":471,"x_min":0,"x_max":0,"o":"m 56 972 l 208 972 l 208 139 l 460 139 l 460 0 l 56 0 "},"m":{"ha":751,"x_min":0,"x_max":0,"o":"m 379 282 l 483 972 l 696 972 l 696 0 l 551 0 l 551 697 l 446 0 l 301 0 l 188 688 l 188 0 l 54 0 l 54 972 l 267 972 "},"n":{"ha":593,"x_min":0,"x_max":0,"o":"m 192 704 l 192 0 l 54 0 l 54 972 l 246 972 l 403 390 l 403 972 l 539 972 l 539 0 l 382 0 "},"o":{"ha":550,"x_min":0,"x_max":0,"o":"m 196 224 b 275 128 196 154 226 128 b 354 224 324 128 354 154 l 354 749 b 275 844 354 818 324 844 b 196 749 226 844 196 818 m 43 739 b 275 983 43 894 125 983 b 507 739 425 983 507 894 l 507 233 b 275 -11 507 78 425 -11 b 43 233 125 -11 43 78 "},"p":{"ha":524,"x_min":0,"x_max":0,"o":"m 281 972 b 508 732 433 972 508 888 l 508 606 b 281 365 508 450 433 365 l 208 365 l 208 0 l 56 0 l 56 972 l 281 972 m 208 833 l 208 504 l 281 504 b 356 596 329 504 356 526 l 356 742 b 281 833 356 811 329 833 "},"q":{"ha":550,"x_min":0,"x_max":0,"o":"m 43 739 b 275 983 43 894 125 983 b 507 739 425 983 507 894 l 507 233 b 478 97 507 179 497 133 b 521 76 485 79 496 76 l 535 76 l 535 -60 l 514 -60 b 382 7 446 -60 403 -35 b 275 -11 351 -4 315 -11 b 43 233 125 -11 43 78 m 196 224 b 275 128 196 154 226 128 b 354 224 324 128 354 154 l 354 749 b 275 844 354 818 324 844 b 196 749 226 844 196 818 "},"r":{"ha":558,"x_min":0,"x_max":0,"o":"m 375 0 b 361 119 367 25 361 40 l 361 272 b 261 396 361 363 331 396 l 208 396 l 208 0 l 56 0 l 56 972 l 286 972 b 513 749 444 972 513 899 l 513 672 b 413 475 513 572 481 507 b 514 268 489 443 514 369 l 514 118 b 531 0 514 71 515 36 m 208 833 l 208 535 l 268 535 b 360 638 325 535 360 560 l 360 733 b 282 833 360 803 336 833 "},"s":{"ha":519,"x_min":0,"x_max":0,"o":"m 36 739 b 261 983 36 894 113 983 b 486 739 410 983 486 894 l 486 708 l 342 708 l 342 749 b 265 844 342 818 314 844 b 189 749 217 844 189 818 b 488 233 189 549 488 511 b 260 -11 488 78 410 -11 b 32 233 110 -11 32 78 l 32 293 l 176 293 l 176 224 b 256 129 176 154 207 129 b 335 224 304 129 335 154 b 36 739 335 424 36 461 "},"t":{"ha":494,"x_min":0,"x_max":0,"o":"m 11 972 l 483 972 l 483 833 l 324 833 l 324 0 l 171 0 l 171 833 l 11 833 "},"u":{"ha":553,"x_min":0,"x_max":0,"o":"m 201 972 l 201 222 b 281 128 201 153 232 128 b 360 222 329 128 360 153 l 360 972 l 504 972 l 504 232 b 276 -12 504 76 426 -12 b 49 232 126 -12 49 76 l 49 972 "},"v":{"ha":558,"x_min":0,"x_max":0,"o":"m 286 179 l 403 972 l 543 972 l 393 0 l 165 0 l 15 972 l 169 972 "},"w":{"ha":782,"x_min":0,"x_max":0,"o":"m 394 518 l 339 0 l 129 0 l 21 972 l 169 972 l 251 206 l 325 972 l 472 972 l 549 200 l 628 972 l 761 972 l 653 0 l 450 0 "},"x":{"ha":597,"x_min":0,"x_max":0,"o":"m 565 972 l 406 500 l 576 0 l 415 0 l 290 385 l 164 0 l 21 0 l 192 500 l 32 972 l 190 972 l 306 614 l 424 972 "},"y":{"ha":550,"x_min":0,"x_max":0,"o":"m 199 322 l 6 972 l 165 972 l 282 529 l 399 972 l 544 972 l 351 322 l 351 0 l 199 0 "},"z":{"ha":514,"x_min":0,"x_max":0,"o":"m 479 972 l 479 836 l 189 139 l 479 139 l 479 0 l 32 0 l 32 136 l 322 833 l 46 833 l 46 972 "},"{":{"ha":357,"x_min":0,"x_max":0,"o":"m 142 486 b 232 363 213 468 229 414 l 239 224 b 313 125 243 147 264 125 l 335 125 l 335 0 l 257 0 b 103 154 171 0 110 49 l 92 340 b 15 424 88 404 74 424 l 15 549 b 92 632 74 549 88 568 l 103 818 b 257 972 110 924 171 972 l 335 972 l 335 847 l 313 847 b 239 749 264 847 243 825 l 232 610 b 142 486 229 558 213 504 "},"|":{"ha":694,"x_min":0,"x_max":0,"o":"m 292 1063 l 417 1063 l 417 -90 l 292 -90 "},"}":{"ha":357,"x_min":0,"x_max":0,"o":"m 215 486 b 125 610 144 504 128 558 l 118 749 b 44 847 114 825 93 847 l 22 847 l 22 972 l 100 972 b 254 818 186 972 247 924 l 265 632 b 342 549 269 568 283 549 l 342 424 b 265 340 283 424 269 404 l 254 154 b 100 0 247 49 186 0 l 22 0 l 22 125 l 44 125 b 118 224 93 125 114 147 l 125 363 b 215 486 128 414 144 468 "},"~":{"ha":550,"x_min":0,"x_max":0,"o":"m 11 461 b 176 586 78 560 124 586 b 375 501 251 586 317 501 b 467 581 407 501 424 521 l 539 506 b 374 386 472 407 426 386 b 175 471 299 386 233 471 b 83 392 143 471 125 451 "}," ":{"ha":215,"x_min":0,"x_max":0,"o":""},"¡":{"ha":264,"x_min":0,"x_max":0,"o":"m 189 757 l 208 406 l 208 0 l 56 0 l 56 406 l 75 757 m 58 825 l 58 972 l 206 972 l 206 825 "},"¢":{"ha":550,"x_min":0,"x_max":0,"o":"m 213 51 b 50 289 106 74 50 157 l 50 683 b 213 921 50 814 106 897 l 213 993 l 338 993 l 338 922 b 506 683 449 900 506 817 l 506 617 l 361 617 l 361 693 b 282 789 361 763 331 789 b 203 693 233 789 203 763 l 203 279 b 282 185 203 210 233 185 b 361 279 331 185 361 210 l 361 390 l 506 390 l 506 289 b 338 50 506 156 449 71 l 338 -21 l 213 -21 "},"£":{"ha":550,"x_min":0,"x_max":0,"o":"m 61 410 l 154 410 b 56 739 121 506 56 569 b 281 983 56 894 132 983 b 506 739 429 983 506 894 l 506 643 l 361 643 l 361 749 b 285 844 361 818 333 844 b 208 749 236 844 208 818 b 301 410 208 575 275 515 l 469 410 l 469 292 l 311 292 b 233 139 304 221 275 172 l 496 139 l 496 0 l 42 0 l 42 133 b 174 292 114 133 171 192 l 61 292 "},"¤":{"ha":550,"x_min":0,"x_max":0,"o":"m 186 486 b 275 397 186 438 226 397 b 364 486 324 397 364 438 b 275 575 364 535 324 575 b 186 486 226 575 186 535 m 121 392 b 96 486 104 419 96 451 b 121 579 96 519 104 553 l 44 657 l 104 717 l 182 639 b 275 665 208 656 240 665 b 368 639 308 665 340 656 l 446 717 l 506 657 l 428 579 b 454 486 444 551 454 519 b 428 393 454 451 444 419 l 506 315 l 446 256 l 368 332 b 275 307 342 315 308 307 b 181 332 240 307 208 315 l 104 256 l 44 315 "},"¥":{"ha":550,"x_min":0,"x_max":0,"o":"m 540 972 l 363 376 l 478 376 l 478 300 l 351 300 l 351 238 l 478 238 l 478 161 l 351 161 l 351 0 l 199 0 l 199 161 l 72 161 l 72 238 l 199 238 l 199 300 l 72 300 l 72 376 l 186 376 l 10 972 l 169 972 l 282 543 l 394 972 "},"¦":{"ha":694,"x_min":0,"x_max":0,"o":"m 292 1063 l 417 1063 l 417 569 l 292 569 m 292 403 l 417 403 l 417 -90 l 292 -90 "},"§":{"ha":550,"x_min":0,"x_max":0,"o":"m 49 436 b 144 606 49 507 81 569 b 49 786 92 640 49 690 b 274 983 49 897 125 983 b 499 794 422 983 499 906 l 499 744 l 354 744 l 354 774 b 278 857 354 824 326 857 b 201 779 229 857 201 829 b 500 446 201 664 500 700 b 403 275 500 375 467 311 b 500 96 457 242 500 190 b 275 -101 500 -15 424 -101 b 50 88 126 -101 50 -24 l 50 157 l 194 157 l 194 108 b 271 25 194 58 222 25 b 347 103 319 25 347 53 b 49 436 347 218 49 182 m 194 442 b 279 335 194 386 232 358 b 354 440 325 342 354 389 b 268 546 354 494 317 522 b 194 442 222 539 194 493 "},"¨":{"ha":347,"x_min":0,"x_max":0,"o":"m 135 1157 l 135 1024 l 1 1024 l 1 1157 m 346 1157 l 346 1024 l 213 1024 l 213 1157 "},"©":{"ha":1022,"x_min":0,"x_max":0,"o":"m 663 428 l 663 350 b 506 181 663 242 610 181 b 349 350 401 181 349 242 l 349 619 b 506 792 349 731 401 792 b 663 619 610 792 663 731 l 663 569 l 563 569 l 563 628 b 508 694 563 676 542 694 b 454 628 475 694 454 676 l 454 344 b 508 279 454 296 475 279 b 563 344 542 279 563 296 l 563 428 m 28 486 b 511 983 28 775 236 983 b 994 486 786 983 994 775 b 511 -11 994 197 786 -11 b 28 486 236 -11 28 197 m 128 486 b 511 86 128 254 292 86 b 894 486 731 86 894 254 b 511 886 894 718 731 886 b 128 486 292 886 128 718 "},"ª":{"ha":386,"x_min":0,"x_max":0,"o":"m 42 601 b 239 775 42 733 124 771 l 239 839 b 200 890 239 875 226 890 b 153 831 169 890 153 875 l 153 799 l 61 799 l 61 825 b 204 979 61 922 108 979 b 336 825 297 979 336 922 l 336 463 l 254 463 l 249 529 b 150 456 233 481 200 456 b 42 596 78 456 42 504 m 336 399 l 336 303 l 42 303 l 42 399 m 139 604 b 189 544 139 560 158 544 b 239 594 218 544 236 557 l 239 703 b 139 617 153 699 139 654 "},"«":{"ha":493,"x_min":0,"x_max":0,"o":"m 246 844 l 161 488 l 246 108 l 108 108 l 22 488 l 108 844 m 471 844 l 386 488 l 471 108 l 333 108 l 247 488 l 333 844 "},"¬":{"ha":550,"x_min":0,"x_max":0,"o":"m 515 540 l 515 242 l 407 242 l 407 432 l 35 432 l 35 540 "},"­":{"ha":375,"x_min":0,"x_max":0,"o":"m 49 556 l 326 556 l 326 417 l 49 417 "},"®":{"ha":1022,"x_min":0,"x_max":0,"o":"m 28 486 b 511 983 28 775 236 983 b 994 486 786 983 994 775 b 511 -11 994 197 786 -11 b 28 486 236 -11 28 197 m 128 486 b 511 86 128 254 292 86 b 894 486 731 86 894 254 b 511 886 894 718 731 886 b 128 486 292 886 128 718 m 581 189 b 571 272 574 207 571 217 l 571 336 b 500 422 571 400 549 422 l 464 422 l 464 189 l 358 189 l 358 783 l 519 783 b 676 628 628 783 676 732 l 676 615 b 604 478 676 544 654 500 b 676 335 658 456 676 406 l 676 271 b 689 189 676 239 678 214 m 464 686 l 464 519 l 507 519 b 571 590 546 519 571 536 l 571 615 b 514 686 571 664 554 686 "},"¯":{"ha":347,"x_min":0,"x_max":0,"o":"m 333 1138 l 333 1029 l 14 1029 l 14 1138 "},"°":{"ha":317,"x_min":0,"x_max":0,"o":"m 21 846 b 158 983 21 922 82 983 b 296 846 235 983 296 922 b 158 708 296 769 235 708 b 21 846 82 708 21 769 m 90 846 b 158 778 90 808 121 778 b 226 846 196 778 226 808 b 158 914 226 883 196 914 b 90 846 121 914 90 883 "},"±":{"ha":550,"x_min":0,"x_max":0,"o":"m 501 350 l 501 242 l 49 242 l 49 350 l 221 350 l 221 461 l 49 461 l 49 569 l 221 569 l 221 728 l 329 728 l 329 569 l 501 569 l 501 461 l 329 461 l 329 350 "},"²":{"ha":389,"x_min":0,"x_max":0,"o":"m 250 956 b 200 1025 250 1010 231 1025 b 150 964 169 1025 150 1008 l 150 899 l 58 899 l 58 958 b 203 1113 58 1057 107 1113 b 347 958 299 1113 347 1057 b 156 575 347 756 136 683 l 339 575 l 339 488 l 58 488 l 58 563 b 250 956 58 743 250 776 "},"³":{"ha":389,"x_min":0,"x_max":0,"o":"m 242 686 b 179 764 242 744 222 764 l 146 764 l 146 851 l 183 851 b 242 918 219 851 242 869 l 242 953 b 192 1024 242 1008 222 1024 b 142 963 161 1024 142 1006 l 142 924 l 50 924 l 50 956 b 194 1111 50 1056 99 1111 b 339 956 290 1111 339 1056 l 339 940 b 271 814 339 874 318 833 b 339 685 319 793 339 747 l 339 636 b 194 481 339 536 290 481 b 50 636 99 481 50 536 l 50 686 l 142 686 l 142 629 b 192 568 142 586 161 568 b 242 639 222 568 242 583 "},"´":{"ha":347,"x_min":0,"x_max":0,"o":"m 282 1178 l 140 1024 l 38 1024 l 132 1178 "},"µ":{"ha":550,"x_min":0,"x_max":0,"o":"m 196 224 b 275 128 196 154 226 128 b 354 224 324 128 354 154 l 354 694 l 507 694 l 507 0 l 368 0 l 368 72 b 229 -11 340 18 292 -11 b 196 -8 217 -11 206 -10 l 196 -129 l 43 -129 l 43 694 l 196 694 "},"¶":{"ha":550,"x_min":0,"x_max":0,"o":"m 494 -90 l 383 -90 l 383 861 l 308 861 l 308 -90 l 197 -90 l 200 368 b 19 606 83 368 19 467 l 19 732 b 247 972 19 888 94 972 l 494 972 "},"·":{"ha":258,"x_min":0,"x_max":0,"o":"m 203 560 l 203 413 l 56 413 l 56 560 "},"¸":{"ha":347,"x_min":0,"x_max":0,"o":"m 36 -110 l 139 -110 l 139 -121 b 169 -149 139 -142 154 -149 b 204 -115 193 -149 204 -139 b 154 -79 204 -89 188 -79 l 140 -79 l 140 19 l 207 19 l 207 -54 b 310 -119 275 -54 310 -71 b 169 -204 310 -194 251 -204 b 36 -124 93 -204 36 -187 "},"¹":{"ha":278,"x_min":0,"x_max":0,"o":"m 35 1026 b 143 1104 110 1026 126 1063 l 207 1104 l 207 488 l 110 488 l 110 958 l 35 958 "},"º":{"ha":389,"x_min":0,"x_max":0,"o":"m 144 604 b 194 544 144 560 163 544 b 244 604 225 544 244 560 l 244 831 b 194 890 244 875 225 890 b 144 831 163 890 144 875 m 47 825 b 194 979 47 922 99 979 b 342 825 290 979 342 922 l 342 610 b 194 456 342 513 290 456 b 47 610 99 456 47 513 m 342 399 l 342 303 l 47 303 l 47 399 "},"»":{"ha":493,"x_min":0,"x_max":0,"o":"m 385 844 l 471 488 l 385 108 l 247 108 l 332 488 l 247 844 m 160 844 l 246 488 l 160 108 l 22 108 l 107 488 l 22 844 "},"¼":{"ha":871,"x_min":0,"x_max":0,"o":"m 90 894 b 199 972 165 894 182 931 l 263 972 l 263 356 l 165 356 l 165 826 l 90 826 m 606 972 l 696 972 l 313 0 l 222 0 m 515 200 l 692 617 l 797 617 l 797 200 l 843 200 l 843 111 l 797 111 l 797 0 l 701 0 l 701 111 l 515 111 m 701 200 l 701 428 l 603 200 "},"½":{"ha":871,"x_min":0,"x_max":0,"o":"m 90 894 b 199 972 165 894 182 931 l 263 972 l 263 356 l 165 356 l 165 826 l 90 826 m 564 972 l 654 972 l 271 0 l 181 0 m 732 468 b 682 538 732 522 713 538 b 632 476 651 538 632 521 l 632 411 l 540 411 l 540 471 b 685 625 540 569 589 625 b 829 471 781 625 829 569 b 638 88 829 268 618 196 l 821 88 l 821 0 l 540 0 l 540 75 b 732 468 540 256 732 289 "},"¾":{"ha":871,"x_min":0,"x_max":0,"o":"m 242 554 b 179 632 242 613 222 632 l 146 632 l 146 719 l 183 719 b 242 786 219 719 242 738 l 242 821 b 192 892 242 876 222 892 b 142 831 161 892 142 874 l 142 792 l 50 792 l 50 824 b 194 979 50 924 99 979 b 339 824 290 979 339 924 l 339 808 b 271 682 339 742 318 701 b 339 553 319 661 339 615 l 339 504 b 194 349 339 404 290 349 b 50 504 99 349 50 404 l 50 554 l 142 554 l 142 497 b 192 436 142 454 161 436 b 242 507 222 436 242 451 m 619 972 l 710 972 l 326 0 l 236 0 m 515 200 l 692 617 l 797 617 l 797 200 l 843 200 l 843 111 l 797 111 l 797 0 l 701 0 l 701 111 l 515 111 m 701 200 l 701 428 l 603 200 "},"¿":{"ha":500,"x_min":0,"x_max":0,"o":"m 333 757 b 342 697 339 740 342 722 b 175 224 342 485 175 465 b 251 128 175 154 203 128 b 328 224 300 128 328 154 l 328 329 l 472 329 l 472 233 b 247 -11 472 78 396 -11 b 22 233 99 -11 22 78 b 203 703 22 486 203 525 b 197 757 203 721 201 739 m 193 825 l 193 972 l 340 972 l 340 825 "},"À":{"ha":565,"x_min":0,"x_max":0,"o":"m 550 0 l 396 0 l 369 176 l 182 176 l 156 0 l 15 0 l 171 972 l 394 972 m 201 308 l 349 308 l 275 800 m 272 1178 l 367 1024 l 257 1024 l 115 1178 "},"Á":{"ha":565,"x_min":0,"x_max":0,"o":"m 550 0 l 396 0 l 369 176 l 182 176 l 156 0 l 15 0 l 171 972 l 394 972 m 201 308 l 349 308 l 275 800 m 446 1178 l 304 1024 l 201 1024 l 296 1178 "},"Â":{"ha":565,"x_min":0,"x_max":0,"o":"m 550 0 l 396 0 l 369 176 l 182 176 l 156 0 l 15 0 l 171 972 l 394 972 m 201 308 l 349 308 l 275 800 m 90 1024 l 214 1178 l 351 1178 l 475 1024 l 344 1024 l 282 1100 l 221 1024 "},"Ã":{"ha":565,"x_min":0,"x_max":0,"o":"m 550 0 l 396 0 l 369 176 l 182 176 l 156 0 l 15 0 l 171 972 l 394 972 m 201 308 l 349 308 l 275 800 m 338 1129 b 397 1169 363 1129 381 1135 l 471 1118 b 353 1024 444 1047 401 1024 b 228 1058 294 1024 269 1058 b 168 1018 203 1058 185 1053 l 94 1069 b 213 1164 121 1140 164 1164 b 338 1129 271 1164 296 1129 "},"Ä":{"ha":565,"x_min":0,"x_max":0,"o":"m 550 0 l 396 0 l 369 176 l 182 176 l 156 0 l 15 0 l 171 972 l 394 972 m 201 308 l 349 308 l 275 800 m 243 1157 l 243 1024 l 110 1024 l 110 1157 m 454 1157 l 454 1024 l 321 1024 l 321 1157 "},"Å":{"ha":565,"x_min":0,"x_max":0,"o":"m 550 0 l 396 0 l 369 176 l 182 176 l 156 0 l 15 0 l 171 972 l 394 972 m 201 308 l 349 308 l 275 800 m 171 1131 b 282 1242 171 1193 219 1242 b 393 1131 344 1242 393 1193 b 282 1019 393 1068 344 1019 b 171 1131 219 1019 171 1068 m 240 1131 b 282 1089 240 1107 258 1089 b 324 1131 306 1089 324 1107 b 282 1172 324 1154 306 1172 b 240 1131 258 1172 240 1154 "},"Æ":{"ha":806,"x_min":0,"x_max":0,"o":"m 350 176 l 196 176 l 151 0 l 6 0 l 265 972 l 767 972 l 767 833 l 503 833 l 503 563 l 713 563 l 713 424 l 503 424 l 503 139 l 767 139 l 767 0 l 350 0 m 350 308 l 350 776 l 231 308 "},"Ç":{"ha":536,"x_min":0,"x_max":0,"o":"m 499 363 l 499 233 b 301 -10 499 89 431 1 l 301 -54 b 404 -119 369 -54 404 -71 b 264 -204 404 -194 346 -204 b 131 -124 188 -204 131 -187 l 131 -110 l 233 -110 l 233 -121 b 264 -149 233 -142 249 -149 b 299 -115 288 -149 299 -139 b 249 -79 299 -89 282 -79 l 235 -79 l 235 -8 b 43 233 108 4 43 90 l 43 739 b 271 983 43 894 121 983 b 499 739 421 983 499 894 l 499 644 l 354 644 l 354 749 b 275 844 354 818 324 844 b 196 749 226 844 196 818 l 196 224 b 275 129 196 154 226 129 b 354 224 324 129 354 154 l 354 363 "},"È":{"ha":511,"x_min":0,"x_max":0,"o":"m 208 563 l 418 563 l 418 424 l 208 424 l 208 139 l 472 139 l 472 0 l 56 0 l 56 972 l 472 972 l 472 833 l 208 833 m 251 1178 l 346 1024 l 236 1024 l 94 1178 "},"É":{"ha":511,"x_min":0,"x_max":0,"o":"m 208 563 l 418 563 l 418 424 l 208 424 l 208 139 l 472 139 l 472 0 l 56 0 l 56 972 l 472 972 l 472 833 l 208 833 m 426 1178 l 285 1024 l 182 1024 l 276 1178 "},"Ê":{"ha":511,"x_min":0,"x_max":0,"o":"m 208 563 l 418 563 l 418 424 l 208 424 l 208 139 l 472 139 l 472 0 l 56 0 l 56 972 l 472 972 l 472 833 l 208 833 m 69 1024 l 193 1178 l 331 1178 l 454 1024 l 324 1024 l 261 1100 l 200 1024 "},"Ë":{"ha":511,"x_min":0,"x_max":0,"o":"m 208 563 l 418 563 l 418 424 l 208 424 l 208 139 l 472 139 l 472 0 l 56 0 l 56 972 l 472 972 l 472 833 l 208 833 m 224 1157 l 224 1024 l 90 1024 l 90 1157 m 435 1157 l 435 1024 l 301 1024 l 301 1157 "},"Ì":{"ha":264,"x_min":0,"x_max":0,"o":"m 56 972 l 208 972 l 208 0 l 56 0 m 122 1178 l 217 1024 l 107 1024 l -35 1178 "},"Í":{"ha":264,"x_min":0,"x_max":0,"o":"m 56 972 l 208 972 l 208 0 l 56 0 m 296 1178 l 154 1024 l 51 1024 l 146 1178 "},"Î":{"ha":264,"x_min":0,"x_max":0,"o":"m 56 972 l 208 972 l 208 0 l 56 0 m -60 1024 l 64 1178 l 201 1178 l 325 1024 l 194 1024 l 132 1100 l 71 1024 "},"Ï":{"ha":264,"x_min":0,"x_max":0,"o":"m 56 972 l 208 972 l 208 0 l 56 0 m 93 1157 l 93 1024 l -40 1024 l -40 1157 m 304 1157 l 304 1024 l 171 1024 l 171 1157 "},"Ð":{"ha":567,"x_min":0,"x_max":0,"o":"m 56 424 l 6 424 l 6 549 l 56 549 l 56 972 l 297 972 b 525 732 450 972 525 888 l 525 240 b 297 0 525 85 450 0 l 56 0 m 208 833 l 208 549 l 303 549 l 303 424 l 208 424 l 208 139 l 294 139 b 372 233 343 139 372 164 l 372 739 b 294 833 372 808 343 833 "},"Ñ":{"ha":593,"x_min":0,"x_max":0,"o":"m 192 704 l 192 0 l 54 0 l 54 972 l 246 972 l 403 390 l 403 972 l 539 972 l 539 0 l 382 0 m 351 1129 b 411 1169 376 1129 394 1135 l 485 1118 b 367 1024 458 1047 415 1024 b 242 1058 308 1024 283 1058 b 182 1018 217 1058 199 1053 l 108 1069 b 226 1164 135 1140 178 1164 b 351 1129 285 1164 310 1129 "},"Ò":{"ha":550,"x_min":0,"x_max":0,"o":"m 196 224 b 275 128 196 154 226 128 b 354 224 324 128 354 154 l 354 749 b 275 844 354 818 324 844 b 196 749 226 844 196 818 m 43 739 b 275 983 43 894 125 983 b 507 739 425 983 507 894 l 507 233 b 275 -11 507 78 425 -11 b 43 233 125 -11 43 78 m 264 1178 l 358 1024 l 249 1024 l 107 1178 "},"Ó":{"ha":550,"x_min":0,"x_max":0,"o":"m 196 224 b 275 128 196 154 226 128 b 354 224 324 128 354 154 l 354 749 b 275 844 354 818 324 844 b 196 749 226 844 196 818 m 43 739 b 275 983 43 894 125 983 b 507 739 425 983 507 894 l 507 233 b 275 -11 507 78 425 -11 b 43 233 125 -11 43 78 m 439 1178 l 297 1024 l 194 1024 l 289 1178 "},"Ô":{"ha":550,"x_min":0,"x_max":0,"o":"m 196 224 b 275 128 196 154 226 128 b 354 224 324 128 354 154 l 354 749 b 275 844 354 818 324 844 b 196 749 226 844 196 818 m 43 739 b 275 983 43 894 125 983 b 507 739 425 983 507 894 l 507 233 b 275 -11 507 78 425 -11 b 43 233 125 -11 43 78 m 82 1024 l 206 1178 l 343 1178 l 467 1024 l 336 1024 l 274 1100 l 213 1024 "},"Õ":{"ha":550,"x_min":0,"x_max":0,"o":"m 196 224 b 275 128 196 154 226 128 b 354 224 324 128 354 154 l 354 749 b 275 844 354 818 324 844 b 196 749 226 844 196 818 m 43 739 b 275 983 43 894 125 983 b 507 739 425 983 507 894 l 507 233 b 275 -11 507 78 425 -11 b 43 233 125 -11 43 78 m 331 1129 b 390 1169 356 1129 374 1135 l 464 1118 b 346 1024 438 1047 394 1024 b 221 1058 288 1024 263 1058 b 161 1018 196 1058 178 1053 l 88 1069 b 206 1164 114 1140 157 1164 b 331 1129 264 1164 289 1129 "},"Ö":{"ha":550,"x_min":0,"x_max":0,"o":"m 196 224 b 275 128 196 154 226 128 b 354 224 324 128 354 154 l 354 749 b 275 844 354 818 324 844 b 196 749 226 844 196 818 m 43 739 b 275 983 43 894 125 983 b 507 739 425 983 507 894 l 507 233 b 275 -11 507 78 425 -11 b 43 233 125 -11 43 78 m 236 1157 l 236 1024 l 103 1024 l 103 1157 m 447 1157 l 447 1024 l 314 1024 l 314 1157 "},"×":{"ha":550,"x_min":0,"x_max":0,"o":"m 275 560 l 422 707 l 496 633 l 349 486 l 496 339 l 422 265 l 275 413 l 126 265 l 53 339 l 200 486 l 54 632 l 128 706 "},"Ø":{"ha":550,"x_min":0,"x_max":0,"o":"m 92 64 b 43 233 60 106 43 163 l 43 739 b 275 983 43 894 125 983 b 414 947 331 983 378 971 l 442 1024 l 493 1006 l 457 907 b 507 739 490 867 507 810 l 507 233 b 275 -11 507 78 425 -11 b 136 24 219 -11 172 0 l 108 -51 l 57 -33 m 196 349 l 351 778 b 275 844 344 825 315 844 b 196 749 226 844 196 818 m 275 128 b 354 224 324 128 354 154 l 354 624 l 197 194 b 275 128 206 146 233 128 "},"Ù":{"ha":553,"x_min":0,"x_max":0,"o":"m 201 972 l 201 222 b 281 128 201 153 232 128 b 360 222 329 128 360 153 l 360 972 l 504 972 l 504 232 b 276 -12 504 76 426 -12 b 49 232 126 -12 49 76 l 49 972 m 267 1178 l 361 1024 l 251 1024 l 110 1178 "},"Ú":{"ha":553,"x_min":0,"x_max":0,"o":"m 201 972 l 201 222 b 281 128 201 153 232 128 b 360 222 329 128 360 153 l 360 972 l 504 972 l 504 232 b 276 -12 504 76 426 -12 b 49 232 126 -12 49 76 l 49 972 m 442 1178 l 300 1024 l 197 1024 l 292 1178 "},"Û":{"ha":553,"x_min":0,"x_max":0,"o":"m 201 972 l 201 222 b 281 128 201 153 232 128 b 360 222 329 128 360 153 l 360 972 l 504 972 l 504 232 b 276 -12 504 76 426 -12 b 49 232 126 -12 49 76 l 49 972 m 86 1024 l 210 1178 l 347 1178 l 471 1024 l 340 1024 l 278 1100 l 217 1024 "},"Ü":{"ha":553,"x_min":0,"x_max":0,"o":"m 201 972 l 201 222 b 281 128 201 153 232 128 b 360 222 329 128 360 153 l 360 972 l 504 972 l 504 232 b 276 -12 504 76 426 -12 b 49 232 126 -12 49 76 l 49 972 m 240 1157 l 240 1024 l 107 1024 l 107 1157 m 451 1157 l 451 1024 l 318 1024 l 318 1157 "},"Ý":{"ha":550,"x_min":0,"x_max":0,"o":"m 199 322 l 6 972 l 165 972 l 282 529 l 399 972 l 544 972 l 351 322 l 351 0 l 199 0 m 444 1178 l 303 1024 l 200 1024 l 294 1178 "},"Þ":{"ha":524,"x_min":0,"x_max":0,"o":"m 56 972 l 208 972 l 208 861 l 281 861 b 508 621 433 861 508 776 l 508 494 b 281 254 508 339 433 254 l 208 254 l 208 0 l 56 0 m 208 722 l 208 393 l 281 393 b 356 485 329 393 356 415 l 356 631 b 281 722 356 700 329 722 "},"ß":{"ha":1039,"x_min":0,"x_max":0,"o":"m 36 739 b 261 983 36 894 113 983 b 486 739 410 983 486 894 l 486 708 l 342 708 l 342 749 b 265 844 342 818 314 844 b 189 749 217 844 189 818 b 488 233 189 549 488 511 b 260 -11 488 78 410 -11 b 32 233 110 -11 32 78 l 32 293 l 176 293 l 176 224 b 256 129 176 154 207 129 b 335 224 304 129 335 154 b 36 739 335 424 36 461 m 556 739 b 781 983 556 894 632 983 b 1006 739 929 983 1006 894 l 1006 708 l 861 708 l 861 749 b 785 844 861 818 833 844 b 708 749 736 844 708 818 b 1007 233 708 549 1007 511 b 779 -11 1007 78 929 -11 b 551 233 629 -11 551 78 l 551 293 l 696 293 l 696 224 b 775 129 696 154 726 129 b 854 224 824 129 854 154 b 556 739 854 424 556 461 "},"à":{"ha":565,"x_min":0,"x_max":0,"o":"m 550 0 l 396 0 l 369 176 l 182 176 l 156 0 l 15 0 l 171 972 l 394 972 m 201 308 l 349 308 l 275 800 m 272 1178 l 367 1024 l 257 1024 l 115 1178 "},"á":{"ha":565,"x_min":0,"x_max":0,"o":"m 550 0 l 396 0 l 369 176 l 182 176 l 156 0 l 15 0 l 171 972 l 394 972 m 201 308 l 349 308 l 275 800 m 446 1178 l 304 1024 l 201 1024 l 296 1178 "},"â":{"ha":565,"x_min":0,"x_max":0,"o":"m 550 0 l 396 0 l 369 176 l 182 176 l 156 0 l 15 0 l 171 972 l 394 972 m 201 308 l 349 308 l 275 800 m 90 1024 l 214 1178 l 351 1178 l 475 1024 l 344 1024 l 282 1100 l 221 1024 "},"ã":{"ha":565,"x_min":0,"x_max":0,"o":"m 550 0 l 396 0 l 369 176 l 182 176 l 156 0 l 15 0 l 171 972 l 394 972 m 201 308 l 349 308 l 275 800 m 338 1129 b 397 1169 363 1129 381 1135 l 471 1118 b 353 1024 444 1047 401 1024 b 228 1058 294 1024 269 1058 b 168 1018 203 1058 185 1053 l 94 1069 b 213 1164 121 1140 164 1164 b 338 1129 271 1164 296 1129 "},"ä":{"ha":565,"x_min":0,"x_max":0,"o":"m 550 0 l 396 0 l 369 176 l 182 176 l 156 0 l 15 0 l 171 972 l 394 972 m 201 308 l 349 308 l 275 800 m 243 1157 l 243 1024 l 110 1024 l 110 1157 m 454 1157 l 454 1024 l 321 1024 l 321 1157 "},"å":{"ha":565,"x_min":0,"x_max":0,"o":"m 550 0 l 396 0 l 369 176 l 182 176 l 156 0 l 15 0 l 171 972 l 394 972 m 201 308 l 349 308 l 275 800 m 171 1131 b 282 1242 171 1193 219 1242 b 393 1131 344 1242 393 1193 b 282 1019 393 1068 344 1019 b 171 1131 219 1019 171 1068 m 240 1131 b 282 1089 240 1107 258 1089 b 324 1131 306 1089 324 1107 b 282 1172 324 1154 306 1172 b 240 1131 258 1172 240 1154 "},"æ":{"ha":806,"x_min":0,"x_max":0,"o":"m 503 563 l 713 563 l 713 424 l 503 424 l 503 139 l 767 139 l 767 0 l 350 0 l 350 176 l 196 176 l 151 0 l 6 0 l 265 972 l 767 972 l 767 833 l 503 833 m 350 308 l 350 776 l 231 308 "},"ç":{"ha":536,"x_min":0,"x_max":0,"o":"m 499 363 l 499 233 b 301 -10 499 89 431 1 l 301 -54 b 404 -119 369 -54 404 -71 b 264 -204 404 -194 346 -204 b 131 -124 188 -204 131 -187 l 131 -110 l 233 -110 l 233 -121 b 264 -149 233 -142 249 -149 b 299 -115 288 -149 299 -139 b 249 -79 299 -89 282 -79 l 235 -79 l 235 -8 b 43 233 108 4 43 90 l 43 739 b 271 983 43 894 121 983 b 499 739 421 983 499 894 l 499 644 l 354 644 l 354 749 b 275 844 354 818 324 844 b 196 749 226 844 196 818 l 196 224 b 275 129 196 154 226 129 b 354 224 324 129 354 154 l 354 363 "},"è":{"ha":511,"x_min":0,"x_max":0,"o":"m 208 563 l 418 563 l 418 424 l 208 424 l 208 139 l 472 139 l 472 0 l 56 0 l 56 972 l 472 972 l 472 833 l 208 833 m 251 1178 l 346 1024 l 236 1024 l 94 1178 "},"é":{"ha":511,"x_min":0,"x_max":0,"o":"m 208 563 l 418 563 l 418 424 l 208 424 l 208 139 l 472 139 l 472 0 l 56 0 l 56 972 l 472 972 l 472 833 l 208 833 m 426 1178 l 285 1024 l 182 1024 l 276 1178 "},"ê":{"ha":511,"x_min":0,"x_max":0,"o":"m 208 563 l 418 563 l 418 424 l 208 424 l 208 139 l 472 139 l 472 0 l 56 0 l 56 972 l 472 972 l 472 833 l 208 833 m 69 1024 l 193 1178 l 331 1178 l 454 1024 l 324 1024 l 261 1100 l 200 1024 "},"ë":{"ha":511,"x_min":0,"x_max":0,"o":"m 208 563 l 418 563 l 418 424 l 208 424 l 208 139 l 472 139 l 472 0 l 56 0 l 56 972 l 472 972 l 472 833 l 208 833 m 224 1157 l 224 1024 l 90 1024 l 90 1157 m 435 1157 l 435 1024 l 301 1024 l 301 1157 "},"ì":{"ha":264,"x_min":0,"x_max":0,"o":"m 56 972 l 208 972 l 208 0 l 56 0 m 122 1178 l 217 1024 l 107 1024 l -35 1178 "},"í":{"ha":264,"x_min":0,"x_max":0,"o":"m 56 972 l 208 972 l 208 0 l 56 0 m 296 1178 l 154 1024 l 51 1024 l 146 1178 "},"î":{"ha":264,"x_min":0,"x_max":0,"o":"m 56 972 l 208 972 l 208 0 l 56 0 m -60 1024 l 64 1178 l 201 1178 l 325 1024 l 194 1024 l 132 1100 l 71 1024 "},"ï":{"ha":264,"x_min":0,"x_max":0,"o":"m 56 972 l 208 972 l 208 0 l 56 0 m 93 1157 l 93 1024 l -40 1024 l -40 1157 m 304 1157 l 304 1024 l 171 1024 l 171 1157 "},"ð":{"ha":567,"x_min":0,"x_max":0,"o":"m 56 424 l 6 424 l 6 549 l 56 549 l 56 972 l 297 972 b 525 732 450 972 525 888 l 525 240 b 297 0 525 85 450 0 l 56 0 m 208 833 l 208 549 l 303 549 l 303 424 l 208 424 l 208 139 l 294 139 b 372 233 343 139 372 164 l 372 739 b 294 833 372 808 343 833 "},"ñ":{"ha":593,"x_min":0,"x_max":0,"o":"m 192 704 l 192 0 l 54 0 l 54 972 l 246 972 l 403 390 l 403 972 l 539 972 l 539 0 l 382 0 m 351 1129 b 411 1169 376 1129 394 1135 l 485 1118 b 367 1024 458 1047 415 1024 b 242 1058 308 1024 283 1058 b 182 1018 217 1058 199 1053 l 108 1069 b 226 1164 135 1140 178 1164 b 351 1129 285 1164 310 1129 "},"ò":{"ha":550,"x_min":0,"x_max":0,"o":"m 196 224 b 275 128 196 154 226 128 b 354 224 324 128 354 154 l 354 749 b 275 844 354 818 324 844 b 196 749 226 844 196 818 m 43 739 b 275 983 43 894 125 983 b 507 739 425 983 507 894 l 507 233 b 275 -11 507 78 425 -11 b 43 233 125 -11 43 78 m 264 1178 l 358 1024 l 249 1024 l 107 1178 "},"ó":{"ha":550,"x_min":0,"x_max":0,"o":"m 196 224 b 275 128 196 154 226 128 b 354 224 324 128 354 154 l 354 749 b 275 844 354 818 324 844 b 196 749 226 844 196 818 m 43 739 b 275 983 43 894 125 983 b 507 739 425 983 507 894 l 507 233 b 275 -11 507 78 425 -11 b 43 233 125 -11 43 78 m 439 1178 l 297 1024 l 194 1024 l 289 1178 "},"ô":{"ha":550,"x_min":0,"x_max":0,"o":"m 196 224 b 275 128 196 154 226 128 b 354 224 324 128 354 154 l 354 749 b 275 844 354 818 324 844 b 196 749 226 844 196 818 m 43 739 b 275 983 43 894 125 983 b 507 739 425 983 507 894 l 507 233 b 275 -11 507 78 425 -11 b 43 233 125 -11 43 78 m 82 1024 l 206 1178 l 343 1178 l 467 1024 l 336 1024 l 274 1100 l 213 1024 "},"õ":{"ha":550,"x_min":0,"x_max":0,"o":"m 196 224 b 275 128 196 154 226 128 b 354 224 324 128 354 154 l 354 749 b 275 844 354 818 324 844 b 196 749 226 844 196 818 m 43 739 b 275 983 43 894 125 983 b 507 739 425 983 507 894 l 507 233 b 275 -11 507 78 425 -11 b 43 233 125 -11 43 78 m 331 1129 b 390 1169 356 1129 374 1135 l 464 1118 b 346 1024 438 1047 394 1024 b 221 1058 288 1024 263 1058 b 161 1018 196 1058 178 1053 l 88 1069 b 206 1164 114 1140 157 1164 b 331 1129 264 1164 289 1129 "},"ö":{"ha":550,"x_min":0,"x_max":0,"o":"m 196 224 b 275 128 196 154 226 128 b 354 224 324 128 354 154 l 354 749 b 275 844 354 818 324 844 b 196 749 226 844 196 818 m 43 739 b 275 983 43 894 125 983 b 507 739 425 983 507 894 l 507 233 b 275 -11 507 78 425 -11 b 43 233 125 -11 43 78 m 236 1157 l 236 1024 l 103 1024 l 103 1157 m 447 1157 l 447 1024 l 314 1024 l 314 1157 "},"÷":{"ha":550,"x_min":0,"x_max":0,"o":"m 349 347 l 349 200 l 201 200 l 201 347 m 349 771 l 349 624 l 201 624 l 201 771 m 515 540 l 515 432 l 35 432 l 35 540 "},"ø":{"ha":550,"x_min":0,"x_max":0,"o":"m 43 739 b 275 983 43 894 125 983 b 414 947 331 983 378 971 l 442 1024 l 493 1006 l 457 907 b 507 739 490 867 507 810 l 507 233 b 275 -11 507 78 425 -11 b 136 24 219 -11 172 0 l 108 -51 l 57 -33 l 92 64 b 43 233 60 106 43 163 m 196 349 l 351 778 b 275 844 344 825 315 844 b 196 749 226 844 196 818 m 275 128 b 354 224 324 128 354 154 l 354 624 l 197 194 b 275 128 206 146 233 128 "},"ù":{"ha":553,"x_min":0,"x_max":0,"o":"m 201 972 l 201 222 b 281 128 201 153 232 128 b 360 222 329 128 360 153 l 360 972 l 504 972 l 504 232 b 276 -12 504 76 426 -12 b 49 232 126 -12 49 76 l 49 972 m 267 1178 l 361 1024 l 251 1024 l 110 1178 "},"ú":{"ha":553,"x_min":0,"x_max":0,"o":"m 201 972 l 201 222 b 281 128 201 153 232 128 b 360 222 329 128 360 153 l 360 972 l 504 972 l 504 232 b 276 -12 504 76 426 -12 b 49 232 126 -12 49 76 l 49 972 m 442 1178 l 300 1024 l 197 1024 l 292 1178 "},"û":{"ha":553,"x_min":0,"x_max":0,"o":"m 201 972 l 201 222 b 281 128 201 153 232 128 b 360 222 329 128 360 153 l 360 972 l 504 972 l 504 232 b 276 -12 504 76 426 -12 b 49 232 126 -12 49 76 l 49 972 m 86 1024 l 210 1178 l 347 1178 l 471 1024 l 340 1024 l 278 1100 l 217 1024 "},"ü":{"ha":553,"x_min":0,"x_max":0,"o":"m 201 972 l 201 222 b 281 128 201 153 232 128 b 360 222 329 128 360 153 l 360 972 l 504 972 l 504 232 b 276 -12 504 76 426 -12 b 49 232 126 -12 49 76 l 49 972 m 240 1157 l 240 1024 l 107 1024 l 107 1157 m 451 1157 l 451 1024 l 318 1024 l 318 1157 "},"ý":{"ha":550,"x_min":0,"x_max":0,"o":"m 199 322 l 6 972 l 165 972 l 282 529 l 399 972 l 544 972 l 351 322 l 351 0 l 199 0 m 444 1178 l 303 1024 l 200 1024 l 294 1178 "},"þ":{"ha":524,"x_min":0,"x_max":0,"o":"m 56 972 l 208 972 l 208 861 l 281 861 b 508 621 433 861 508 776 l 508 494 b 281 254 508 339 433 254 l 208 254 l 208 0 l 56 0 m 208 722 l 208 393 l 281 393 b 356 485 329 393 356 415 l 356 631 b 281 722 356 700 329 722 "},"ÿ":{"ha":550,"x_min":0,"x_max":0,"o":"m 199 322 l 6 972 l 165 972 l 282 529 l 399 972 l 544 972 l 351 322 l 351 0 l 199 0 m 242 1157 l 242 1024 l 108 1024 l 108 1157 m 453 1157 l 453 1024 l 319 1024 l 319 1157 "},"Ā":{"ha":565,"x_min":0,"x_max":0,"o":"m 550 0 l 396 0 l 369 176 l 182 176 l 156 0 l 15 0 l 171 972 l 394 972 m 201 308 l 349 308 l 275 800 m 442 1138 l 442 1029 l 122 1029 l 122 1138 "},"ā":{"ha":565,"x_min":0,"x_max":0,"o":"m 550 0 l 396 0 l 369 176 l 182 176 l 156 0 l 15 0 l 171 972 l 394 972 m 201 308 l 349 308 l 275 800 m 442 1138 l 442 1029 l 122 1029 l 122 1138 "},"Ă":{"ha":565,"x_min":0,"x_max":0,"o":"m 550 0 l 396 0 l 369 176 l 182 176 l 156 0 l 15 0 l 171 972 l 394 972 m 201 308 l 349 308 l 275 800 m 347 1178 l 438 1178 b 281 1018 438 1081 385 1018 b 126 1178 176 1018 128 1081 l 217 1178 b 281 1113 221 1125 242 1113 b 347 1178 321 1113 343 1125 "},"ă":{"ha":565,"x_min":0,"x_max":0,"o":"m 550 0 l 396 0 l 369 176 l 182 176 l 156 0 l 15 0 l 171 972 l 394 972 m 201 308 l 349 308 l 275 800 m 347 1178 l 438 1178 b 281 1018 438 1081 385 1018 b 126 1178 176 1018 128 1081 l 217 1178 b 281 1113 221 1125 242 1113 b 347 1178 321 1113 343 1125 "},"Ą":{"ha":565,"x_min":0,"x_max":0,"o":"m 550 0 l 493 0 b 451 -81 458 -29 451 -61 b 500 -119 451 -107 475 -119 b 550 -111 528 -119 535 -115 l 550 -189 b 456 -204 518 -201 494 -204 b 335 -118 382 -204 335 -175 b 400 -17 335 -81 356 -46 l 369 176 l 182 176 l 156 0 l 15 0 l 171 972 l 394 972 m 201 308 l 349 308 l 275 800 "},"ą":{"ha":565,"x_min":0,"x_max":0,"o":"m 550 0 l 493 0 b 451 -81 458 -29 451 -61 b 500 -119 451 -107 475 -119 b 550 -111 528 -119 535 -115 l 550 -189 b 456 -204 518 -201 494 -204 b 335 -118 382 -204 335 -175 b 400 -17 335 -81 356 -46 l 369 176 l 182 176 l 156 0 l 15 0 l 171 972 l 394 972 m 201 308 l 349 308 l 275 800 "},"Ć":{"ha":536,"x_min":0,"x_max":0,"o":"m 499 363 l 499 233 b 271 -11 499 78 421 -11 b 43 233 121 -11 43 78 l 43 739 b 271 983 43 894 121 983 b 499 739 421 983 499 894 l 499 644 l 354 644 l 354 749 b 275 844 354 818 324 844 b 196 749 226 844 196 818 l 196 224 b 275 129 196 154 226 129 b 354 224 324 129 354 154 l 354 363 m 435 1178 l 293 1024 l 190 1024 l 285 1178 "},"ć":{"ha":536,"x_min":0,"x_max":0,"o":"m 499 363 l 499 233 b 271 -11 499 78 421 -11 b 43 233 121 -11 43 78 l 43 739 b 271 983 43 894 121 983 b 499 739 421 983 499 894 l 499 644 l 354 644 l 354 749 b 275 844 354 818 324 844 b 196 749 226 844 196 818 l 196 224 b 275 129 196 154 226 129 b 354 224 324 129 354 154 l 354 363 m 435 1178 l 293 1024 l 190 1024 l 285 1178 "},"Ĉ":{"ha":536,"x_min":0,"x_max":0,"o":"m 499 363 l 499 233 b 271 -11 499 78 421 -11 b 43 233 121 -11 43 78 l 43 739 b 271 983 43 894 121 983 b 499 739 421 983 499 894 l 499 644 l 354 644 l 354 749 b 275 844 354 818 324 844 b 196 749 226 844 196 818 l 196 224 b 275 129 196 154 226 129 b 354 224 324 129 354 154 l 354 363 m 78 1024 l 201 1178 l 339 1178 l 463 1024 l 332 1024 l 269 1100 l 208 1024 "},"ĉ":{"ha":536,"x_min":0,"x_max":0,"o":"m 499 363 l 499 233 b 271 -11 499 78 421 -11 b 43 233 121 -11 43 78 l 43 739 b 271 983 43 894 121 983 b 499 739 421 983 499 894 l 499 644 l 354 644 l 354 749 b 275 844 354 818 324 844 b 196 749 226 844 196 818 l 196 224 b 275 129 196 154 226 129 b 354 224 324 129 354 154 l 354 363 m 78 1024 l 201 1178 l 339 1178 l 463 1024 l 332 1024 l 269 1100 l 208 1024 "},"Ċ":{"ha":536,"x_min":0,"x_max":0,"o":"m 499 363 l 499 233 b 271 -11 499 78 421 -11 b 43 233 121 -11 43 78 l 43 739 b 271 983 43 894 121 983 b 499 739 421 983 499 894 l 499 644 l 354 644 l 354 749 b 275 844 354 818 324 844 b 196 749 226 844 196 818 l 196 224 b 275 129 196 154 226 129 b 354 224 324 129 354 154 l 354 363 m 338 1157 l 338 1024 l 204 1024 l 204 1157 "},"ċ":{"ha":536,"x_min":0,"x_max":0,"o":"m 499 363 l 499 233 b 271 -11 499 78 421 -11 b 43 233 121 -11 43 78 l 43 739 b 271 983 43 894 121 983 b 499 739 421 983 499 894 l 499 644 l 354 644 l 354 749 b 275 844 354 818 324 844 b 196 749 226 844 196 818 l 196 224 b 275 129 196 154 226 129 b 354 224 324 129 354 154 l 354 363 m 338 1157 l 338 1024 l 204 1024 l 204 1157 "},"Č":{"ha":536,"x_min":0,"x_max":0,"o":"m 499 363 l 499 233 b 271 -11 499 78 421 -11 b 43 233 121 -11 43 78 l 43 739 b 271 983 43 894 121 983 b 499 739 421 983 499 894 l 499 644 l 354 644 l 354 749 b 275 844 354 818 324 844 b 196 749 226 844 196 818 l 196 224 b 275 129 196 154 226 129 b 354 224 324 129 354 154 l 354 363 m 208 1178 l 269 1100 l 332 1178 l 463 1178 l 339 1024 l 201 1024 l 78 1178 "},"č":{"ha":536,"x_min":0,"x_max":0,"o":"m 499 363 l 499 233 b 271 -11 499 78 421 -11 b 43 233 121 -11 43 78 l 43 739 b 271 983 43 894 121 983 b 499 739 421 983 499 894 l 499 644 l 354 644 l 354 749 b 275 844 354 818 324 844 b 196 749 226 844 196 818 l 196 224 b 275 129 196 154 226 129 b 354 224 324 129 354 154 l 354 363 m 208 1178 l 269 1100 l 332 1178 l 463 1178 l 339 1024 l 201 1024 l 78 1178 "},"Ď":{"ha":567,"x_min":0,"x_max":0,"o":"m 56 972 l 297 972 b 525 732 450 972 525 888 l 525 240 b 297 0 525 85 450 0 l 56 0 m 208 833 l 208 139 l 294 139 b 372 233 343 139 372 164 l 372 739 b 294 833 372 808 343 833 m 208 1178 l 269 1100 l 332 1178 l 463 1178 l 339 1024 l 201 1024 l 78 1178 "},"ď":{"ha":567,"x_min":0,"x_max":0,"o":"m 56 972 l 297 972 b 525 732 450 972 525 888 l 525 240 b 297 0 525 85 450 0 l 56 0 m 208 833 l 208 139 l 294 139 b 372 233 343 139 372 164 l 372 739 b 294 833 372 808 343 833 m 208 1178 l 269 1100 l 332 1178 l 463 1178 l 339 1024 l 201 1024 l 78 1178 "},"Đ":{"ha":567,"x_min":0,"x_max":0,"o":"m 56 424 l 6 424 l 6 549 l 56 549 l 56 972 l 297 972 b 525 732 450 972 525 888 l 525 240 b 297 0 525 85 450 0 l 56 0 m 208 833 l 208 549 l 303 549 l 303 424 l 208 424 l 208 139 l 294 139 b 372 233 343 139 372 164 l 372 739 b 294 833 372 808 343 833 "},"đ":{"ha":567,"x_min":0,"x_max":0,"o":"m 56 424 l 6 424 l 6 549 l 56 549 l 56 972 l 297 972 b 525 732 450 972 525 888 l 525 240 b 297 0 525 85 450 0 l 56 0 m 208 833 l 208 549 l 303 549 l 303 424 l 208 424 l 208 139 l 294 139 b 372 233 343 139 372 164 l 372 739 b 294 833 372 808 343 833 "},"Ē":{"ha":511,"x_min":0,"x_max":0,"o":"m 208 563 l 418 563 l 418 424 l 208 424 l 208 139 l 472 139 l 472 0 l 56 0 l 56 972 l 472 972 l 472 833 l 208 833 m 421 1138 l 421 1029 l 101 1029 l 101 1138 "},"ē":{"ha":511,"x_min":0,"x_max":0,"o":"m 208 563 l 418 563 l 418 424 l 208 424 l 208 139 l 472 139 l 472 0 l 56 0 l 56 972 l 472 972 l 472 833 l 208 833 m 421 1138 l 421 1029 l 101 1029 l 101 1138 "},"Ĕ":{"ha":511,"x_min":0,"x_max":0,"o":"m 208 563 l 418 563 l 418 424 l 208 424 l 208 139 l 472 139 l 472 0 l 56 0 l 56 972 l 472 972 l 472 833 l 208 833 m 326 1178 l 417 1178 b 260 1018 417 1081 364 1018 b 106 1178 156 1018 107 1081 l 196 1178 b 260 1113 200 1125 221 1113 b 326 1178 300 1113 322 1125 "},"ĕ":{"ha":511,"x_min":0,"x_max":0,"o":"m 208 563 l 418 563 l 418 424 l 208 424 l 208 139 l 472 139 l 472 0 l 56 0 l 56 972 l 472 972 l 472 833 l 208 833 m 326 1178 l 417 1178 b 260 1018 417 1081 364 1018 b 106 1178 156 1018 107 1081 l 196 1178 b 260 1113 200 1125 221 1113 b 326 1178 300 1113 322 1125 "},"Ė":{"ha":511,"x_min":0,"x_max":0,"o":"m 208 563 l 418 563 l 418 424 l 208 424 l 208 139 l 472 139 l 472 0 l 56 0 l 56 972 l 472 972 l 472 833 l 208 833 m 328 1157 l 328 1024 l 194 1024 l 194 1157 "},"ė":{"ha":511,"x_min":0,"x_max":0,"o":"m 208 563 l 418 563 l 418 424 l 208 424 l 208 139 l 472 139 l 472 0 l 56 0 l 56 972 l 472 972 l 472 833 l 208 833 m 328 1157 l 328 1024 l 194 1024 l 194 1157 "},"Ę":{"ha":511,"x_min":0,"x_max":0,"o":"m 208 563 l 418 563 l 418 424 l 208 424 l 208 139 l 472 139 l 472 0 l 415 0 b 374 -81 381 -29 374 -61 b 422 -119 374 -107 397 -119 b 472 -111 450 -119 457 -115 l 472 -189 b 378 -204 440 -201 417 -204 b 257 -118 304 -204 257 -175 b 350 0 257 -74 288 -32 l 56 0 l 56 972 l 472 972 l 472 833 l 208 833 "},"ę":{"ha":511,"x_min":0,"x_max":0,"o":"m 208 563 l 418 563 l 418 424 l 208 424 l 208 139 l 472 139 l 472 0 l 415 0 b 374 -81 381 -29 374 -61 b 422 -119 374 -107 397 -119 b 472 -111 450 -119 457 -115 l 472 -189 b 378 -204 440 -201 417 -204 b 257 -118 304 -204 257 -175 b 350 0 257 -74 288 -32 l 56 0 l 56 972 l 472 972 l 472 833 l 208 833 "},"Ě":{"ha":511,"x_min":0,"x_max":0,"o":"m 208 563 l 418 563 l 418 424 l 208 424 l 208 139 l 472 139 l 472 0 l 56 0 l 56 972 l 472 972 l 472 833 l 208 833 m 199 1178 l 260 1100 l 322 1178 l 453 1178 l 329 1024 l 192 1024 l 68 1178 "},"ě":{"ha":511,"x_min":0,"x_max":0,"o":"m 208 563 l 418 563 l 418 424 l 208 424 l 208 139 l 472 139 l 472 0 l 56 0 l 56 972 l 472 972 l 472 833 l 208 833 m 199 1178 l 260 1100 l 322 1178 l 453 1178 l 329 1024 l 192 1024 l 68 1178 "},"Ĝ":{"ha":542,"x_min":0,"x_max":0,"o":"m 285 542 l 499 542 l 499 233 b 271 -11 499 78 421 -11 b 43 233 121 -11 43 78 l 43 739 b 271 983 43 894 121 983 b 499 739 421 983 499 894 l 499 644 l 354 644 l 354 749 b 275 844 354 818 324 844 b 196 749 226 844 196 818 l 196 224 b 275 129 196 154 226 129 b 354 224 324 129 354 154 l 354 403 l 285 403 m 78 1024 l 201 1178 l 339 1178 l 463 1024 l 332 1024 l 269 1100 l 208 1024 "},"ĝ":{"ha":542,"x_min":0,"x_max":0,"o":"m 285 542 l 499 542 l 499 233 b 271 -11 499 78 421 -11 b 43 233 121 -11 43 78 l 43 739 b 271 983 43 894 121 983 b 499 739 421 983 499 894 l 499 644 l 354 644 l 354 749 b 275 844 354 818 324 844 b 196 749 226 844 196 818 l 196 224 b 275 129 196 154 226 129 b 354 224 324 129 354 154 l 354 403 l 285 403 m 78 1024 l 201 1178 l 339 1178 l 463 1024 l 332 1024 l 269 1100 l 208 1024 "},"Ğ":{"ha":542,"x_min":0,"x_max":0,"o":"m 285 542 l 499 542 l 499 233 b 271 -11 499 78 421 -11 b 43 233 121 -11 43 78 l 43 739 b 271 983 43 894 121 983 b 499 739 421 983 499 894 l 499 644 l 354 644 l 354 749 b 275 844 354 818 324 844 b 196 749 226 844 196 818 l 196 224 b 275 129 196 154 226 129 b 354 224 324 129 354 154 l 354 403 l 285 403 m 335 1178 l 425 1178 b 268 1018 425 1081 372 1018 b 114 1178 164 1018 115 1081 l 204 1178 b 268 1113 208 1125 229 1113 b 335 1178 308 1113 331 1125 "},"ğ":{"ha":542,"x_min":0,"x_max":0,"o":"m 285 542 l 499 542 l 499 233 b 271 -11 499 78 421 -11 b 43 233 121 -11 43 78 l 43 739 b 271 983 43 894 121 983 b 499 739 421 983 499 894 l 499 644 l 354 644 l 354 749 b 275 844 354 818 324 844 b 196 749 226 844 196 818 l 196 224 b 275 129 196 154 226 129 b 354 224 324 129 354 154 l 354 403 l 285 403 m 335 1178 l 425 1178 b 268 1018 425 1081 372 1018 b 114 1178 164 1018 115 1081 l 204 1178 b 268 1113 208 1125 229 1113 b 335 1178 308 1113 331 1125 "},"Ġ":{"ha":542,"x_min":0,"x_max":0,"o":"m 285 542 l 499 542 l 499 233 b 271 -11 499 78 421 -11 b 43 233 121 -11 43 78 l 43 739 b 271 983 43 894 121 983 b 499 739 421 983 499 894 l 499 644 l 354 644 l 354 749 b 275 844 354 818 324 844 b 196 749 226 844 196 818 l 196 224 b 275 129 196 154 226 129 b 354 224 324 129 354 154 l 354 403 l 285 403 m 336 1157 l 336 1024 l 203 1024 l 203 1157 "},"ġ":{"ha":542,"x_min":0,"x_max":0,"o":"m 285 542 l 499 542 l 499 233 b 271 -11 499 78 421 -11 b 43 233 121 -11 43 78 l 43 739 b 271 983 43 894 121 983 b 499 739 421 983 499 894 l 499 644 l 354 644 l 354 749 b 275 844 354 818 324 844 b 196 749 226 844 196 818 l 196 224 b 275 129 196 154 226 129 b 354 224 324 129 354 154 l 354 403 l 285 403 m 336 1157 l 336 1024 l 203 1024 l 203 1157 "},"Ģ":{"ha":542,"x_min":0,"x_max":0,"o":"m 285 542 l 499 542 l 499 233 b 271 -11 499 78 421 -11 b 43 233 121 -11 43 78 l 43 739 b 271 983 43 894 121 983 b 499 739 421 983 499 894 l 499 644 l 354 644 l 354 749 b 275 844 354 818 324 844 b 196 749 226 844 196 818 l 196 224 b 275 129 196 154 226 129 b 354 224 324 129 354 154 l 354 403 l 285 403 m 207 -174 l 207 -46 l 335 -46 l 335 -160 l 275 -249 l 221 -249 l 257 -174 "},"ģ":{"ha":542,"x_min":0,"x_max":0,"o":"m 285 542 l 499 542 l 499 233 b 271 -11 499 78 421 -11 b 43 233 121 -11 43 78 l 43 739 b 271 983 43 894 121 983 b 499 739 421 983 499 894 l 499 644 l 354 644 l 354 749 b 275 844 354 818 324 844 b 196 749 226 844 196 818 l 196 224 b 275 129 196 154 226 129 b 354 224 324 129 354 154 l 354 403 l 285 403 m 207 -174 l 207 -46 l 335 -46 l 335 -160 l 275 -249 l 221 -249 l 257 -174 "},"Ĥ":{"ha":593,"x_min":0,"x_max":0,"o":"m 208 0 l 56 0 l 56 972 l 208 972 l 208 556 l 382 556 l 382 972 l 538 972 l 538 0 l 382 0 l 382 417 l 208 417 m 104 1024 l 228 1178 l 365 1178 l 489 1024 l 358 1024 l 296 1100 l 235 1024 "},"ĥ":{"ha":593,"x_min":0,"x_max":0,"o":"m 208 0 l 56 0 l 56 972 l 208 972 l 208 556 l 382 556 l 382 972 l 538 972 l 538 0 l 382 0 l 382 417 l 208 417 m 104 1024 l 228 1178 l 365 1178 l 489 1024 l 358 1024 l 296 1100 l 235 1024 "},"Ħ":{"ha":607,"x_min":0,"x_max":0,"o":"m 215 0 l 63 0 l 63 697 l 14 697 l 14 811 l 63 811 l 63 972 l 215 972 l 215 811 l 389 811 l 389 972 l 544 972 l 544 811 l 593 811 l 593 697 l 544 697 l 544 0 l 389 0 l 389 417 l 215 417 m 389 556 l 389 697 l 215 697 l 215 556 "},"ħ":{"ha":607,"x_min":0,"x_max":0,"o":"m 215 0 l 63 0 l 63 697 l 14 697 l 14 811 l 63 811 l 63 972 l 215 972 l 215 811 l 389 811 l 389 972 l 544 972 l 544 811 l 593 811 l 593 697 l 544 697 l 544 0 l 389 0 l 389 417 l 215 417 m 389 556 l 389 697 l 215 697 l 215 556 "},"Ĩ":{"ha":264,"x_min":0,"x_max":0,"o":"m 56 972 l 208 972 l 208 0 l 56 0 m 188 1129 b 247 1169 213 1129 231 1135 l 321 1118 b 203 1024 294 1047 251 1024 b 78 1058 144 1024 119 1058 b 18 1018 53 1058 35 1053 l -56 1069 b 63 1164 -29 1140 14 1164 b 188 1129 121 1164 146 1129 "},"ĩ":{"ha":264,"x_min":0,"x_max":0,"o":"m 56 972 l 208 972 l 208 0 l 56 0 m 188 1129 b 247 1169 213 1129 231 1135 l 321 1118 b 203 1024 294 1047 251 1024 b 78 1058 144 1024 119 1058 b 18 1018 53 1058 35 1053 l -56 1069 b 63 1164 -29 1140 14 1164 b 188 1129 121 1164 146 1129 "},"Ī":{"ha":264,"x_min":0,"x_max":0,"o":"m 56 972 l 208 972 l 208 0 l 56 0 m 292 1138 l 292 1029 l -28 1029 l -28 1138 "},"ī":{"ha":264,"x_min":0,"x_max":0,"o":"m 56 972 l 208 972 l 208 0 l 56 0 m 292 1138 l 292 1029 l -28 1029 l -28 1138 "},"Ĭ":{"ha":264,"x_min":0,"x_max":0,"o":"m 56 972 l 208 972 l 208 0 l 56 0 m 197 1178 l 288 1178 b 131 1018 288 1081 235 1018 b -24 1178 26 1018 -22 1081 l 67 1178 b 131 1113 71 1125 92 1113 b 197 1178 171 1113 193 1125 "},"ĭ":{"ha":264,"x_min":0,"x_max":0,"o":"m 56 972 l 208 972 l 208 0 l 56 0 m 197 1178 l 288 1178 b 131 1018 288 1081 235 1018 b -24 1178 26 1018 -22 1081 l 67 1178 b 131 1113 71 1125 92 1113 b 197 1178 171 1113 193 1125 "},"Į":{"ha":264,"x_min":0,"x_max":0,"o":"m 56 972 l 208 972 l 208 0 l 181 0 b 139 -81 146 -29 139 -61 b 188 -119 139 -107 163 -119 b 238 -111 215 -119 222 -115 l 238 -189 b 143 -204 206 -201 182 -204 b 22 -118 69 -204 22 -175 b 115 0 22 -74 53 -32 l 56 0 "},"į":{"ha":264,"x_min":0,"x_max":0,"o":"m 56 972 l 208 972 l 208 0 l 181 0 b 139 -81 146 -29 139 -61 b 188 -119 139 -107 163 -119 b 238 -111 215 -119 222 -115 l 238 -189 b 143 -204 206 -201 182 -204 b 22 -118 69 -204 22 -175 b 115 0 22 -74 53 -32 l 56 0 "},"İ":{"ha":264,"x_min":0,"x_max":0,"o":"m 56 972 l 208 972 l 208 0 l 56 0 m 199 1157 l 199 1024 l 65 1024 l 65 1157 "},"ı":{"ha":264,"x_min":0,"x_max":0,"o":"m 56 972 l 208 972 l 208 0 l 56 0 "},"Ĳ":{"ha":619,"x_min":0,"x_max":0,"o":"m 56 972 l 208 972 l 208 0 l 56 0 m 278 139 b 331 138 294 138 314 138 b 418 231 379 138 418 156 l 418 972 l 571 972 l 571 242 b 351 -3 571 47 467 -3 b 278 0 324 -3 303 -3 "},"ĳ":{"ha":619,"x_min":0,"x_max":0,"o":"m 56 972 l 208 972 l 208 0 l 56 0 m 278 139 b 331 138 294 138 314 138 b 418 231 379 138 418 156 l 418 972 l 571 972 l 571 242 b 351 -3 571 47 467 -3 b 278 0 324 -3 303 -3 "},"Ĵ":{"ha":356,"x_min":0,"x_max":0,"o":"m 14 139 b 67 138 31 138 50 138 b 154 231 115 138 154 156 l 154 972 l 307 972 l 307 242 b 88 -3 307 47 203 -3 b 14 0 60 -3 39 -3 m 13 1024 l 136 1178 l 274 1178 l 397 1024 l 267 1024 l 204 1100 l 143 1024 "},"ĵ":{"ha":356,"x_min":0,"x_max":0,"o":"m 14 139 b 67 138 31 138 50 138 b 154 231 115 138 154 156 l 154 972 l 307 972 l 307 242 b 88 -3 307 47 203 -3 b 14 0 60 -3 39 -3 m 13 1024 l 136 1178 l 274 1178 l 397 1024 l 267 1024 l 204 1100 l 143 1024 "},"Ķ":{"ha":575,"x_min":0,"x_max":0,"o":"m 256 388 l 208 299 l 208 0 l 56 0 l 56 972 l 208 972 l 208 549 l 408 972 l 561 972 l 349 539 l 561 0 l 404 0 m 235 -174 l 235 -46 l 363 -46 l 363 -160 l 303 -249 l 249 -249 l 285 -174 "},"ķ":{"ha":575,"x_min":0,"x_max":0,"o":"m 256 388 l 208 299 l 208 0 l 56 0 l 56 972 l 208 972 l 208 549 l 408 972 l 561 972 l 349 539 l 561 0 l 404 0 m 235 -174 l 235 -46 l 363 -46 l 363 -160 l 303 -249 l 249 -249 l 285 -174 "},"ĸ":{"ha":575,"x_min":0,"x_max":0,"o":"m 256 388 l 208 299 l 208 0 l 56 0 l 56 972 l 208 972 l 208 549 l 408 972 l 561 972 l 349 539 l 561 0 l 404 0 "},"Ĺ":{"ha":471,"x_min":0,"x_max":0,"o":"m 56 972 l 208 972 l 208 139 l 460 139 l 460 0 l 56 0 m 344 1178 l 203 1024 l 100 1024 l 194 1178 "},"ĺ":{"ha":471,"x_min":0,"x_max":0,"o":"m 56 972 l 208 972 l 208 139 l 460 139 l 460 0 l 56 0 m 344 1178 l 203 1024 l 100 1024 l 194 1178 "},"Ļ":{"ha":471,"x_min":0,"x_max":0,"o":"m 56 972 l 208 972 l 208 139 l 460 139 l 460 0 l 56 0 m 194 -174 l 194 -46 l 322 -46 l 322 -160 l 263 -249 l 208 -249 l 244 -174 "},"ļ":{"ha":471,"x_min":0,"x_max":0,"o":"m 56 972 l 208 972 l 208 139 l 460 139 l 460 0 l 56 0 m 194 -174 l 194 -46 l 322 -46 l 322 -160 l 263 -249 l 208 -249 l 244 -174 "},"Ľ":{"ha":471,"x_min":0,"x_max":0,"o":"m 56 972 l 208 972 l 208 139 l 460 139 l 460 0 l 56 0 m 293 825 l 293 972 l 440 972 l 440 840 l 374 686 l 311 686 l 351 825 "},"ľ":{"ha":471,"x_min":0,"x_max":0,"o":"m 56 972 l 208 972 l 208 139 l 460 139 l 460 0 l 56 0 m 293 825 l 293 972 l 440 972 l 440 840 l 374 686 l 311 686 l 351 825 "},"Ŀ":{"ha":471,"x_min":0,"x_max":0,"o":"m 56 972 l 208 972 l 208 139 l 460 139 l 460 0 l 56 0 m 439 560 l 439 413 l 292 413 l 292 560 "},"ŀ":{"ha":471,"x_min":0,"x_max":0,"o":"m 56 972 l 208 972 l 208 139 l 460 139 l 460 0 l 56 0 m 439 560 l 439 413 l 292 413 l 292 560 "},"Ł":{"ha":483,"x_min":0,"x_max":0,"o":"m 0 271 l 68 343 l 68 972 l 221 972 l 221 507 l 389 688 l 389 549 l 221 368 l 221 139 l 472 139 l 472 0 l 68 0 l 68 204 l 0 132 "},"ł":{"ha":483,"x_min":0,"x_max":0,"o":"m 0 271 l 68 343 l 68 972 l 221 972 l 221 507 l 389 688 l 389 549 l 221 368 l 221 139 l 472 139 l 472 0 l 68 0 l 68 204 l 0 132 "},"Ń":{"ha":593,"x_min":0,"x_max":0,"o":"m 192 704 l 192 0 l 54 0 l 54 972 l 246 972 l 403 390 l 403 972 l 539 972 l 539 0 l 382 0 m 460 1178 l 318 1024 l 215 1024 l 310 1178 "},"ń":{"ha":593,"x_min":0,"x_max":0,"o":"m 192 704 l 192 0 l 54 0 l 54 972 l 246 972 l 403 390 l 403 972 l 539 972 l 539 0 l 382 0 m 460 1178 l 318 1024 l 215 1024 l 310 1178 "},"Ņ":{"ha":593,"x_min":0,"x_max":0,"o":"m 192 704 l 192 0 l 54 0 l 54 972 l 246 972 l 403 390 l 403 972 l 539 972 l 539 0 l 382 0 m 232 -174 l 232 -46 l 360 -46 l 360 -160 l 300 -249 l 246 -249 l 282 -174 "},"ņ":{"ha":593,"x_min":0,"x_max":0,"o":"m 192 704 l 192 0 l 54 0 l 54 972 l 246 972 l 403 390 l 403 972 l 539 972 l 539 0 l 382 0 m 232 -174 l 232 -46 l 360 -46 l 360 -160 l 300 -249 l 246 -249 l 282 -174 "},"Ň":{"ha":593,"x_min":0,"x_max":0,"o":"m 192 704 l 192 0 l 54 0 l 54 972 l 246 972 l 403 390 l 403 972 l 539 972 l 539 0 l 382 0 m 235 1178 l 296 1100 l 358 1178 l 489 1178 l 365 1024 l 228 1024 l 104 1178 "},"ň":{"ha":593,"x_min":0,"x_max":0,"o":"m 192 704 l 192 0 l 54 0 l 54 972 l 246 972 l 403 390 l 403 972 l 539 972 l 539 0 l 382 0 m 235 1178 l 296 1100 l 358 1178 l 489 1178 l 365 1024 l 228 1024 l 104 1178 "},"ŉ":{"ha":754,"x_min":0,"x_max":0,"o":"m 353 704 l 353 0 l 215 0 l 215 972 l 407 972 l 564 390 l 564 972 l 700 972 l 700 0 l 543 0 m 7 825 l 7 972 l 154 972 l 154 840 l 88 686 l 25 686 l 65 825 "},"Ō":{"ha":550,"x_min":0,"x_max":0,"o":"m 196 224 b 275 128 196 154 226 128 b 354 224 324 128 354 154 l 354 749 b 275 844 354 818 324 844 b 196 749 226 844 196 818 m 43 739 b 275 983 43 894 125 983 b 507 739 425 983 507 894 l 507 233 b 275 -11 507 78 425 -11 b 43 233 125 -11 43 78 m 435 1138 l 435 1029 l 115 1029 l 115 1138 "},"ō":{"ha":550,"x_min":0,"x_max":0,"o":"m 196 224 b 275 128 196 154 226 128 b 354 224 324 128 354 154 l 354 749 b 275 844 354 818 324 844 b 196 749 226 844 196 818 m 43 739 b 275 983 43 894 125 983 b 507 739 425 983 507 894 l 507 233 b 275 -11 507 78 425 -11 b 43 233 125 -11 43 78 m 435 1138 l 435 1029 l 115 1029 l 115 1138 "},"Ŏ":{"ha":550,"x_min":0,"x_max":0,"o":"m 196 224 b 275 128 196 154 226 128 b 354 224 324 128 354 154 l 354 749 b 275 844 354 818 324 844 b 196 749 226 844 196 818 m 43 739 b 275 983 43 894 125 983 b 507 739 425 983 507 894 l 507 233 b 275 -11 507 78 425 -11 b 43 233 125 -11 43 78 m 340 1178 l 431 1178 b 274 1018 431 1081 378 1018 b 119 1178 169 1018 121 1081 l 210 1178 b 274 1113 214 1125 235 1113 b 340 1178 314 1113 336 1125 "},"ŏ":{"ha":550,"x_min":0,"x_max":0,"o":"m 196 224 b 275 128 196 154 226 128 b 354 224 324 128 354 154 l 354 749 b 275 844 354 818 324 844 b 196 749 226 844 196 818 m 43 739 b 275 983 43 894 125 983 b 507 739 425 983 507 894 l 507 233 b 275 -11 507 78 425 -11 b 43 233 125 -11 43 78 m 340 1178 l 431 1178 b 274 1018 431 1081 378 1018 b 119 1178 169 1018 121 1081 l 210 1178 b 274 1113 214 1125 235 1113 b 340 1178 314 1113 336 1125 "},"Ő":{"ha":550,"x_min":0,"x_max":0,"o":"m 196 224 b 275 128 196 154 226 128 b 354 224 324 128 354 154 l 354 749 b 275 844 354 818 324 844 b 196 749 226 844 196 818 m 43 739 b 275 983 43 894 125 983 b 507 739 425 983 507 894 l 507 233 b 275 -11 507 78 425 -11 b 43 233 125 -11 43 78 m 322 1178 l 207 1024 l 114 1024 l 183 1178 m 504 1178 l 388 1024 l 296 1024 l 364 1178 "},"ő":{"ha":550,"x_min":0,"x_max":0,"o":"m 196 224 b 275 128 196 154 226 128 b 354 224 324 128 354 154 l 354 749 b 275 844 354 818 324 844 b 196 749 226 844 196 818 m 43 739 b 275 983 43 894 125 983 b 507 739 425 983 507 894 l 507 233 b 275 -11 507 78 425 -11 b 43 233 125 -11 43 78 m 322 1178 l 207 1024 l 114 1024 l 183 1178 m 504 1178 l 388 1024 l 296 1024 l 364 1178 "},"Œ":{"ha":814,"x_min":0,"x_max":0,"o":"m 511 563 l 721 563 l 721 424 l 511 424 l 511 139 l 775 139 l 775 0 l 269 0 b 42 240 117 0 42 85 l 42 732 b 269 972 42 888 117 972 l 775 972 l 775 833 l 511 833 m 358 833 l 272 833 b 194 739 224 833 194 808 l 194 233 b 272 139 194 164 224 139 l 358 139 "},"œ":{"ha":814,"x_min":0,"x_max":0,"o":"m 511 563 l 721 563 l 721 424 l 511 424 l 511 139 l 775 139 l 775 0 l 269 0 b 42 240 117 0 42 85 l 42 732 b 269 972 42 888 117 972 l 775 972 l 775 833 l 511 833 m 358 833 l 272 833 b 194 739 224 833 194 808 l 194 233 b 272 139 194 164 224 139 l 358 139 "},"Ŕ":{"ha":558,"x_min":0,"x_max":0,"o":"m 375 0 b 361 119 367 25 361 40 l 361 272 b 261 396 361 363 331 396 l 208 396 l 208 0 l 56 0 l 56 972 l 286 972 b 513 749 444 972 513 899 l 513 672 b 413 475 513 572 481 507 b 514 268 489 443 514 369 l 514 118 b 531 0 514 71 515 36 m 208 833 l 208 535 l 268 535 b 360 638 325 535 360 560 l 360 733 b 282 833 360 803 336 833 m 435 1178 l 293 1024 l 190 1024 l 285 1178 "},"ŕ":{"ha":558,"x_min":0,"x_max":0,"o":"m 375 0 b 361 119 367 25 361 40 l 361 272 b 261 396 361 363 331 396 l 208 396 l 208 0 l 56 0 l 56 972 l 286 972 b 513 749 444 972 513 899 l 513 672 b 413 475 513 572 481 507 b 514 268 489 443 514 369 l 514 118 b 531 0 514 71 515 36 m 208 833 l 208 535 l 268 535 b 360 638 325 535 360 560 l 360 733 b 282 833 360 803 336 833 m 435 1178 l 293 1024 l 190 1024 l 285 1178 "},"Ŗ":{"ha":558,"x_min":0,"x_max":0,"o":"m 375 0 b 361 119 367 25 361 40 l 361 272 b 261 396 361 363 331 396 l 208 396 l 208 0 l 56 0 l 56 972 l 286 972 b 513 749 444 972 513 899 l 513 672 b 413 475 513 572 481 507 b 514 268 489 443 514 369 l 514 118 b 531 0 514 71 515 36 m 208 833 l 208 535 l 268 535 b 360 638 325 535 360 560 l 360 733 b 282 833 360 803 336 833 m 218 -174 l 218 -46 l 346 -46 l 346 -160 l 286 -249 l 232 -249 l 268 -174 "},"ŗ":{"ha":558,"x_min":0,"x_max":0,"o":"m 375 0 b 361 119 367 25 361 40 l 361 272 b 261 396 361 363 331 396 l 208 396 l 208 0 l 56 0 l 56 972 l 286 972 b 513 749 444 972 513 899 l 513 672 b 413 475 513 572 481 507 b 514 268 489 443 514 369 l 514 118 b 531 0 514 71 515 36 m 208 833 l 208 535 l 268 535 b 360 638 325 535 360 560 l 360 733 b 282 833 360 803 336 833 m 218 -174 l 218 -46 l 346 -46 l 346 -160 l 286 -249 l 232 -249 l 268 -174 "},"Ř":{"ha":558,"x_min":0,"x_max":0,"o":"m 375 0 b 361 119 367 25 361 40 l 361 272 b 261 396 361 363 331 396 l 208 396 l 208 0 l 56 0 l 56 972 l 286 972 b 513 749 444 972 513 899 l 513 672 b 413 475 513 572 481 507 b 514 268 489 443 514 369 l 514 118 b 531 0 514 71 515 36 m 208 833 l 208 535 l 268 535 b 360 638 325 535 360 560 l 360 733 b 282 833 360 803 336 833 m 208 1178 l 269 1100 l 332 1178 l 463 1178 l 339 1024 l 201 1024 l 78 1178 "},"ř":{"ha":558,"x_min":0,"x_max":0,"o":"m 375 0 b 361 119 367 25 361 40 l 361 272 b 261 396 361 363 331 396 l 208 396 l 208 0 l 56 0 l 56 972 l 286 972 b 513 749 444 972 513 899 l 513 672 b 413 475 513 572 481 507 b 514 268 489 443 514 369 l 514 118 b 531 0 514 71 515 36 m 208 833 l 208 535 l 268 535 b 360 638 325 535 360 560 l 360 733 b 282 833 360 803 336 833 m 208 1178 l 269 1100 l 332 1178 l 463 1178 l 339 1024 l 201 1024 l 78 1178 "},"Ś":{"ha":519,"x_min":0,"x_max":0,"o":"m 36 739 b 261 983 36 894 113 983 b 486 739 410 983 486 894 l 486 708 l 342 708 l 342 749 b 265 844 342 818 314 844 b 189 749 217 844 189 818 b 488 233 189 549 488 511 b 260 -11 488 78 410 -11 b 32 233 110 -11 32 78 l 32 293 l 176 293 l 176 224 b 256 129 176 154 207 129 b 335 224 304 129 335 154 b 36 739 335 424 36 461 m 424 1178 l 282 1024 l 179 1024 l 274 1178 "},"ś":{"ha":519,"x_min":0,"x_max":0,"o":"m 36 739 b 261 983 36 894 113 983 b 486 739 410 983 486 894 l 486 708 l 342 708 l 342 749 b 265 844 342 818 314 844 b 189 749 217 844 189 818 b 488 233 189 549 488 511 b 260 -11 488 78 410 -11 b 32 233 110 -11 32 78 l 32 293 l 176 293 l 176 224 b 256 129 176 154 207 129 b 335 224 304 129 335 154 b 36 739 335 424 36 461 m 424 1178 l 282 1024 l 179 1024 l 274 1178 "},"Ŝ":{"ha":519,"x_min":0,"x_max":0,"o":"m 36 739 b 261 983 36 894 113 983 b 486 739 410 983 486 894 l 486 708 l 342 708 l 342 749 b 265 844 342 818 314 844 b 189 749 217 844 189 818 b 488 233 189 549 488 511 b 260 -11 488 78 410 -11 b 32 233 110 -11 32 78 l 32 293 l 176 293 l 176 224 b 256 129 176 154 207 129 b 335 224 304 129 335 154 b 36 739 335 424 36 461 m 67 1024 l 190 1178 l 328 1178 l 451 1024 l 321 1024 l 258 1100 l 197 1024 "},"ŝ":{"ha":519,"x_min":0,"x_max":0,"o":"m 36 739 b 261 983 36 894 113 983 b 486 739 410 983 486 894 l 486 708 l 342 708 l 342 749 b 265 844 342 818 314 844 b 189 749 217 844 189 818 b 488 233 189 549 488 511 b 260 -11 488 78 410 -11 b 32 233 110 -11 32 78 l 32 293 l 176 293 l 176 224 b 256 129 176 154 207 129 b 335 224 304 129 335 154 b 36 739 335 424 36 461 m 67 1024 l 190 1178 l 328 1178 l 451 1024 l 321 1024 l 258 1100 l 197 1024 "},"Ş":{"ha":519,"x_min":0,"x_max":0,"o":"m 36 739 b 261 983 36 894 113 983 b 486 739 410 983 486 894 l 486 708 l 342 708 l 342 749 b 265 844 342 818 314 844 b 189 749 217 844 189 818 b 488 233 189 549 488 511 b 285 -10 488 86 418 0 l 285 -54 b 388 -119 353 -54 388 -71 b 247 -204 388 -194 329 -204 b 114 -124 171 -204 114 -187 l 114 -110 l 217 -110 l 217 -121 b 247 -149 217 -142 232 -149 b 282 -115 271 -149 282 -139 b 232 -79 282 -89 265 -79 l 218 -79 l 218 -8 b 32 233 94 7 32 93 l 32 293 l 176 293 l 176 224 b 256 129 176 154 207 129 b 335 224 304 129 335 154 b 36 739 335 424 36 461 "},"ş":{"ha":519,"x_min":0,"x_max":0,"o":"m 36 739 b 261 983 36 894 113 983 b 486 739 410 983 486 894 l 486 708 l 342 708 l 342 749 b 265 844 342 818 314 844 b 189 749 217 844 189 818 b 488 233 189 549 488 511 b 285 -10 488 86 418 0 l 285 -54 b 388 -119 353 -54 388 -71 b 247 -204 388 -194 329 -204 b 114 -124 171 -204 114 -187 l 114 -110 l 217 -110 l 217 -121 b 247 -149 217 -142 232 -149 b 282 -115 271 -149 282 -139 b 232 -79 282 -89 265 -79 l 218 -79 l 218 -8 b 32 233 94 7 32 93 l 32 293 l 176 293 l 176 224 b 256 129 176 154 207 129 b 335 224 304 129 335 154 b 36 739 335 424 36 461 "},"Š":{"ha":519,"x_min":0,"x_max":0,"o":"m 36 739 b 261 983 36 894 113 983 b 486 739 410 983 486 894 l 486 708 l 342 708 l 342 749 b 265 844 342 818 314 844 b 189 749 217 844 189 818 b 488 233 189 549 488 511 b 260 -11 488 78 410 -11 b 32 233 110 -11 32 78 l 32 293 l 176 293 l 176 224 b 256 129 176 154 207 129 b 335 224 304 129 335 154 b 36 739 335 424 36 461 m 199 1178 l 260 1100 l 322 1178 l 453 1178 l 329 1024 l 192 1024 l 68 1178 "},"š":{"ha":519,"x_min":0,"x_max":0,"o":"m 36 739 b 261 983 36 894 113 983 b 486 739 410 983 486 894 l 486 708 l 342 708 l 342 749 b 265 844 342 818 314 844 b 189 749 217 844 189 818 b 488 233 189 549 488 511 b 260 -11 488 78 410 -11 b 32 233 110 -11 32 78 l 32 293 l 176 293 l 176 224 b 256 129 176 154 207 129 b 335 224 304 129 335 154 b 36 739 335 424 36 461 m 197 1178 l 258 1100 l 321 1178 l 451 1178 l 328 1024 l 190 1024 l 67 1178 "},"Ţ":{"ha":494,"x_min":0,"x_max":0,"o":"m 122 -137 l 211 -137 l 211 -151 b 240 -176 211 -171 226 -176 b 276 -140 264 -176 276 -164 b 226 -101 276 -114 260 -101 l 211 -101 l 211 0 l 171 0 l 171 833 l 11 833 l 11 972 l 483 972 l 483 833 l 324 833 l 324 0 l 281 0 l 281 -54 b 368 -133 335 -54 368 -85 b 242 -247 368 -217 310 -247 b 122 -151 179 -247 122 -215 "},"ţ":{"ha":494,"x_min":0,"x_max":0,"o":"m 122 -137 l 211 -137 l 211 -151 b 240 -176 211 -171 226 -176 b 276 -140 264 -176 276 -164 b 226 -101 276 -114 260 -101 l 211 -101 l 211 0 l 171 0 l 171 833 l 11 833 l 11 972 l 483 972 l 483 833 l 324 833 l 324 0 l 281 0 l 281 -54 b 368 -133 335 -54 368 -85 b 242 -247 368 -217 310 -247 b 122 -151 179 -247 122 -215 "},"Ť":{"ha":494,"x_min":0,"x_max":0,"o":"m 11 972 l 483 972 l 483 833 l 324 833 l 324 0 l 171 0 l 171 833 l 11 833 m 185 1178 l 246 1100 l 308 1178 l 439 1178 l 315 1024 l 178 1024 l 54 1178 "},"ť":{"ha":494,"x_min":0,"x_max":0,"o":"m 11 972 l 483 972 l 483 833 l 324 833 l 324 0 l 171 0 l 171 833 l 11 833 m 185 1178 l 246 1100 l 308 1178 l 439 1178 l 315 1024 l 178 1024 l 54 1178 "},"Ŧ":{"ha":494,"x_min":0,"x_max":0,"o":"m 171 676 l 171 833 l 11 833 l 11 972 l 483 972 l 483 833 l 324 833 l 324 676 l 415 676 l 415 563 l 324 563 l 324 0 l 171 0 l 171 563 l 79 563 l 79 676 "},"ŧ":{"ha":494,"x_min":0,"x_max":0,"o":"m 171 676 l 171 833 l 11 833 l 11 972 l 483 972 l 483 833 l 324 833 l 324 676 l 415 676 l 415 563 l 324 563 l 324 0 l 171 0 l 171 563 l 79 563 l 79 676 "},"Ũ":{"ha":553,"x_min":0,"x_max":0,"o":"m 201 972 l 201 222 b 281 128 201 153 232 128 b 360 222 329 128 360 153 l 360 972 l 504 972 l 504 232 b 276 -12 504 76 426 -12 b 49 232 126 -12 49 76 l 49 972 m 333 1129 b 393 1169 358 1129 376 1135 l 467 1118 b 349 1024 440 1047 397 1024 b 224 1058 290 1024 265 1058 b 164 1018 199 1058 181 1053 l 90 1069 b 208 1164 117 1140 160 1164 b 333 1129 267 1164 292 1129 "},"ũ":{"ha":553,"x_min":0,"x_max":0,"o":"m 201 972 l 201 222 b 281 128 201 153 232 128 b 360 222 329 128 360 153 l 360 972 l 504 972 l 504 232 b 276 -12 504 76 426 -12 b 49 232 126 -12 49 76 l 49 972 m 333 1129 b 393 1169 358 1129 376 1135 l 467 1118 b 349 1024 440 1047 397 1024 b 224 1058 290 1024 265 1058 b 164 1018 199 1058 181 1053 l 90 1069 b 208 1164 117 1140 160 1164 b 333 1129 267 1164 292 1129 "},"Ū":{"ha":553,"x_min":0,"x_max":0,"o":"m 201 972 l 201 222 b 281 128 201 153 232 128 b 360 222 329 128 360 153 l 360 972 l 504 972 l 504 232 b 276 -12 504 76 426 -12 b 49 232 126 -12 49 76 l 49 972 m 438 1138 l 438 1029 l 118 1029 l 118 1138 "},"ū":{"ha":553,"x_min":0,"x_max":0,"o":"m 201 972 l 201 222 b 281 128 201 153 232 128 b 360 222 329 128 360 153 l 360 972 l 504 972 l 504 232 b 276 -12 504 76 426 -12 b 49 232 126 -12 49 76 l 49 972 m 438 1138 l 438 1029 l 118 1029 l 118 1138 "},"Ŭ":{"ha":553,"x_min":0,"x_max":0,"o":"m 201 972 l 201 222 b 281 128 201 153 232 128 b 360 222 329 128 360 153 l 360 972 l 504 972 l 504 232 b 276 -12 504 76 426 -12 b 49 232 126 -12 49 76 l 49 972 m 343 1178 l 433 1178 b 276 1018 433 1081 381 1018 b 122 1178 172 1018 124 1081 l 213 1178 b 276 1113 217 1125 238 1113 b 343 1178 317 1113 339 1125 "},"ŭ":{"ha":553,"x_min":0,"x_max":0,"o":"m 201 972 l 201 222 b 281 128 201 153 232 128 b 360 222 329 128 360 153 l 360 972 l 504 972 l 504 232 b 276 -12 504 76 426 -12 b 49 232 126 -12 49 76 l 49 972 m 343 1178 l 433 1178 b 276 1018 433 1081 381 1018 b 122 1178 172 1018 124 1081 l 213 1178 b 276 1113 217 1125 238 1113 b 343 1178 317 1113 339 1125 "},"Ů":{"ha":553,"x_min":0,"x_max":0,"o":"m 201 972 l 201 222 b 281 128 201 153 232 128 b 360 222 329 128 360 153 l 360 972 l 504 972 l 504 232 b 276 -12 504 76 426 -12 b 49 232 126 -12 49 76 l 49 972 m 167 1131 b 278 1242 167 1193 215 1242 b 389 1131 340 1242 389 1193 b 278 1019 389 1068 340 1019 b 167 1131 215 1019 167 1068 m 236 1131 b 278 1089 236 1107 254 1089 b 319 1131 301 1089 319 1107 b 278 1172 319 1154 301 1172 b 236 1131 254 1172 236 1154 "},"ů":{"ha":553,"x_min":0,"x_max":0,"o":"m 201 972 l 201 222 b 281 128 201 153 232 128 b 360 222 329 128 360 153 l 360 972 l 504 972 l 504 232 b 276 -12 504 76 426 -12 b 49 232 126 -12 49 76 l 49 972 m 167 1131 b 278 1242 167 1193 215 1242 b 389 1131 340 1242 389 1193 b 278 1019 389 1068 340 1019 b 167 1131 215 1019 167 1068 m 236 1131 b 278 1089 236 1107 254 1089 b 319 1131 301 1089 319 1107 b 278 1172 319 1154 301 1172 b 236 1131 254 1172 236 1154 "},"Ű":{"ha":553,"x_min":0,"x_max":0,"o":"m 201 972 l 201 222 b 281 128 201 153 232 128 b 360 222 329 128 360 153 l 360 972 l 504 972 l 504 232 b 276 -12 504 76 426 -12 b 49 232 126 -12 49 76 l 49 972 m 325 1178 l 210 1024 l 117 1024 l 186 1178 m 507 1178 l 390 1024 l 299 1024 l 367 1178 "},"ű":{"ha":553,"x_min":0,"x_max":0,"o":"m 201 972 l 201 222 b 281 128 201 153 232 128 b 360 222 329 128 360 153 l 360 972 l 504 972 l 504 232 b 276 -12 504 76 426 -12 b 49 232 126 -12 49 76 l 49 972 m 325 1178 l 210 1024 l 117 1024 l 186 1178 m 507 1178 l 390 1024 l 299 1024 l 367 1178 "},"Ų":{"ha":553,"x_min":0,"x_max":0,"o":"m 201 972 l 201 222 b 281 128 201 153 232 128 b 360 222 329 128 360 153 l 360 972 l 504 972 l 504 232 b 417 11 504 150 492 69 b 369 -81 378 -19 369 -60 b 418 -119 369 -107 393 -119 b 468 -111 446 -119 453 -115 l 468 -189 b 374 -204 436 -201 413 -204 b 253 -118 300 -204 253 -175 b 333 -7 253 -76 279 -39 b 276 -12 315 -11 297 -12 b 49 232 126 -12 49 76 l 49 972 "},"ų":{"ha":553,"x_min":0,"x_max":0,"o":"m 201 972 l 201 222 b 281 128 201 153 232 128 b 360 222 329 128 360 153 l 360 972 l 504 972 l 504 232 b 417 11 504 150 492 69 b 369 -81 378 -19 369 -60 b 418 -119 369 -107 393 -119 b 468 -111 446 -119 453 -115 l 468 -189 b 374 -204 436 -201 413 -204 b 253 -118 300 -204 253 -175 b 333 -7 253 -76 279 -39 b 276 -12 315 -11 297 -12 b 49 232 126 -12 49 76 l 49 972 "},"Ŵ":{"ha":782,"x_min":0,"x_max":0,"o":"m 394 518 l 339 0 l 129 0 l 21 972 l 169 972 l 251 206 l 325 972 l 472 972 l 549 200 l 628 972 l 761 972 l 653 0 l 450 0 m 199 1024 l 322 1178 l 460 1178 l 583 1024 l 453 1024 l 390 1100 l 329 1024 "},"ŵ":{"ha":782,"x_min":0,"x_max":0,"o":"m 394 518 l 339 0 l 129 0 l 21 972 l 169 972 l 251 206 l 325 972 l 472 972 l 549 200 l 628 972 l 761 972 l 653 0 l 450 0 m 199 1024 l 322 1178 l 460 1178 l 583 1024 l 453 1024 l 390 1100 l 329 1024 "},"Ŷ":{"ha":550,"x_min":0,"x_max":0,"o":"m 199 322 l 6 972 l 165 972 l 282 529 l 399 972 l 544 972 l 351 322 l 351 0 l 199 0 m 89 1024 l 213 1178 l 350 1178 l 474 1024 l 343 1024 l 281 1100 l 219 1024 "},"ŷ":{"ha":550,"x_min":0,"x_max":0,"o":"m 199 322 l 6 972 l 165 972 l 282 529 l 399 972 l 544 972 l 351 322 l 351 0 l 199 0 m 89 1024 l 213 1178 l 350 1178 l 474 1024 l 343 1024 l 281 1100 l 219 1024 "},"Ÿ":{"ha":550,"x_min":0,"x_max":0,"o":"m 199 322 l 6 972 l 165 972 l 282 529 l 399 972 l 544 972 l 351 322 l 351 0 l 199 0 m 242 1157 l 242 1024 l 108 1024 l 108 1157 m 453 1157 l 453 1024 l 319 1024 l 319 1157 "},"Ź":{"ha":514,"x_min":0,"x_max":0,"o":"m 479 972 l 479 836 l 189 139 l 479 139 l 479 0 l 32 0 l 32 136 l 322 833 l 46 833 l 46 972 m 422 1178 l 281 1024 l 178 1024 l 272 1178 "},"ź":{"ha":514,"x_min":0,"x_max":0,"o":"m 479 972 l 479 836 l 189 139 l 479 139 l 479 0 l 32 0 l 32 136 l 322 833 l 46 833 l 46 972 m 422 1178 l 281 1024 l 178 1024 l 272 1178 "},"Ż":{"ha":514,"x_min":0,"x_max":0,"o":"m 479 972 l 479 836 l 189 139 l 479 139 l 479 0 l 32 0 l 32 136 l 322 833 l 46 833 l 46 972 m 325 1157 l 325 1024 l 192 1024 l 192 1157 "},"ż":{"ha":514,"x_min":0,"x_max":0,"o":"m 479 972 l 479 836 l 189 139 l 479 139 l 479 0 l 32 0 l 32 136 l 322 833 l 46 833 l 46 972 m 325 1157 l 325 1024 l 192 1024 l 192 1157 "},"Ž":{"ha":514,"x_min":0,"x_max":0,"o":"m 479 972 l 479 836 l 189 139 l 479 139 l 479 0 l 32 0 l 32 136 l 322 833 l 46 833 l 46 972 m 197 1178 l 258 1100 l 321 1178 l 451 1178 l 328 1024 l 190 1024 l 67 1178 "},"ž":{"ha":514,"x_min":0,"x_max":0,"o":"m 479 972 l 479 836 l 189 139 l 479 139 l 479 0 l 32 0 l 32 136 l 322 833 l 46 833 l 46 972 m 197 1178 l 258 1100 l 321 1178 l 451 1178 l 328 1024 l 190 1024 l 67 1178 "},"Ǽ":{"ha":806,"x_min":0,"x_max":0,"o":"m 350 176 l 196 176 l 151 0 l 6 0 l 265 972 l 767 972 l 767 833 l 503 833 l 503 563 l 713 563 l 713 424 l 503 424 l 503 139 l 767 139 l 767 0 l 350 0 m 350 308 l 350 776 l 231 308 m 567 1178 l 425 1024 l 322 1024 l 417 1178 "},"ǽ":{"ha":806,"x_min":0,"x_max":0,"o":"m 350 176 l 196 176 l 151 0 l 6 0 l 265 972 l 767 972 l 767 833 l 503 833 l 503 563 l 713 563 l 713 424 l 503 424 l 503 139 l 767 139 l 767 0 l 350 0 m 350 308 l 350 776 l 231 308 m 567 1178 l 425 1024 l 322 1024 l 417 1178 "},"Ǿ":{"ha":550,"x_min":0,"x_max":0,"o":"m 43 739 b 275 983 43 894 125 983 b 414 947 331 983 378 971 l 442 1024 l 493 1006 l 457 907 b 507 739 490 867 507 810 l 507 233 b 275 -11 507 78 425 -11 b 136 24 219 -11 172 0 l 108 -51 l 57 -33 l 92 64 b 43 233 60 106 43 163 m 196 349 l 351 778 b 275 844 344 825 315 844 b 196 749 226 844 196 818 m 275 128 b 354 224 324 128 354 154 l 354 624 l 197 194 b 275 128 206 146 233 128 m 439 1178 l 297 1024 l 194 1024 l 289 1178 "},"ǿ":{"ha":550,"x_min":0,"x_max":0,"o":"m 43 739 b 275 983 43 894 125 983 b 414 947 331 983 378 971 l 442 1024 l 493 1006 l 457 907 b 507 739 490 867 507 810 l 507 233 b 275 -11 507 78 425 -11 b 136 24 219 -11 172 0 l 108 -51 l 57 -33 l 92 64 b 43 233 60 106 43 163 m 196 349 l 351 778 b 275 844 344 825 315 844 b 196 749 226 844 196 818 m 275 128 b 354 224 324 128 354 154 l 354 624 l 197 194 b 275 128 206 146 233 128 m 439 1178 l 297 1024 l 194 1024 l 289 1178 "},"Ș":{"ha":519,"x_min":0,"x_max":0,"o":"m 192 -174 l 192 -46 l 319 -46 l 319 -160 l 260 -249 l 206 -249 l 242 -174 m 36 739 b 261 983 36 894 113 983 b 486 739 410 983 486 894 l 486 708 l 342 708 l 342 749 b 265 844 342 818 314 844 b 189 749 217 844 189 818 b 488 233 189 549 488 511 b 260 -11 488 78 410 -11 b 32 233 110 -11 32 78 l 32 293 l 176 293 l 176 224 b 256 129 176 154 207 129 b 335 224 304 129 335 154 b 36 739 335 424 36 461 "},"ș":{"ha":519,"x_min":0,"x_max":0,"o":"m 192 -174 l 192 -46 l 319 -46 l 319 -160 l 260 -249 l 206 -249 l 242 -174 m 36 739 b 261 983 36 894 113 983 b 486 739 410 983 486 894 l 486 708 l 342 708 l 342 749 b 265 844 342 818 314 844 b 189 749 217 844 189 818 b 488 233 189 549 488 511 b 260 -11 488 78 410 -11 b 32 233 110 -11 32 78 l 32 293 l 176 293 l 176 224 b 256 129 176 154 207 129 b 335 224 304 129 335 154 b 36 739 335 424 36 461 "},"Ț":{"ha":494,"x_min":0,"x_max":0,"o":"m 11 972 l 483 972 l 483 833 l 324 833 l 324 0 l 171 0 l 171 833 l 11 833 m 183 -174 l 183 -46 l 311 -46 l 311 -160 l 251 -249 l 197 -249 l 233 -174 "},"ț":{"ha":494,"x_min":0,"x_max":0,"o":"m 11 972 l 483 972 l 483 833 l 324 833 l 324 0 l 171 0 l 171 833 l 11 833 m 183 -174 l 183 -46 l 311 -46 l 311 -160 l 251 -249 l 197 -249 l 233 -174 "},"ȷ":{"ha":356,"x_min":0,"x_max":0,"o":"m 14 139 b 67 138 31 138 50 138 b 154 231 115 138 154 156 l 154 972 l 307 972 l 307 242 b 88 -3 307 47 203 -3 b 14 0 60 -3 39 -3 "},"ʼ":{"ha":258,"x_min":0,"x_max":0,"o":"m 56 825 l 56 972 l 203 972 l 203 840 l 136 686 l 74 686 l 114 825 "},"ˆ":{"ha":347,"x_min":0,"x_max":0,"o":"m -18 1024 l 106 1178 l 243 1178 l 367 1024 l 236 1024 l 174 1100 l 113 1024 "},"ˇ":{"ha":347,"x_min":0,"x_max":0,"o":"m 113 1178 l 174 1100 l 236 1178 l 367 1178 l 243 1024 l 106 1024 l -18 1178 "},"˘":{"ha":347,"x_min":0,"x_max":0,"o":"m 239 1178 l 329 1178 b 172 1018 329 1081 276 1018 b 18 1178 68 1018 19 1081 l 108 1178 b 172 1113 113 1125 133 1113 b 239 1178 213 1113 235 1125 "},"˙":{"ha":347,"x_min":0,"x_max":0,"o":"m 240 1157 l 240 1024 l 107 1024 l 107 1157 "},"˚":{"ha":347,"x_min":0,"x_max":0,"o":"m 63 1131 b 174 1242 63 1193 111 1242 b 285 1131 236 1242 285 1193 b 174 1019 285 1068 236 1019 b 63 1131 111 1019 63 1068 m 132 1131 b 174 1089 132 1107 150 1089 b 215 1131 197 1089 215 1107 b 174 1172 215 1154 197 1172 b 132 1131 150 1172 132 1154 "},"˛":{"ha":347,"x_min":0,"x_max":0,"o":"m 171 6 l 231 6 b 182 -81 190 -25 182 -60 b 231 -119 182 -107 206 -119 b 281 -111 258 -119 265 -115 l 281 -189 b 186 -204 249 -201 225 -204 b 65 -118 113 -204 65 -175 b 171 6 65 -71 100 -28 "},"˜":{"ha":347,"x_min":0,"x_max":0,"o":"m 229 1129 b 289 1169 254 1129 272 1135 l 363 1118 b 244 1024 336 1047 293 1024 b 119 1058 186 1024 161 1058 b 60 1018 94 1058 76 1053 l -14 1069 b 104 1164 13 1140 56 1164 b 229 1129 163 1164 188 1129 "},"˝":{"ha":347,"x_min":0,"x_max":0,"o":"m 174 1178 l 58 1024 l -35 1024 l 35 1178 m 356 1178 l 239 1024 l 147 1024 l 215 1178 "},"Ḃ":{"ha":564,"x_min":0,"x_max":0,"o":"m 286 972 b 513 749 444 972 513 899 l 513 714 b 414 518 513 614 482 550 b 528 310 496 486 528 413 l 528 231 b 296 0 528 81 449 0 l 56 0 l 56 972 l 286 972 m 208 438 l 208 139 l 296 139 b 375 235 347 139 375 163 l 375 319 b 276 438 375 410 346 438 m 208 833 l 208 576 l 268 576 b 360 679 325 576 360 601 l 360 733 b 282 833 360 803 336 833 m 325 1157 l 325 1024 l 192 1024 l 192 1157 "},"ḃ":{"ha":564,"x_min":0,"x_max":0,"o":"m 286 972 b 513 749 444 972 513 899 l 513 714 b 414 518 513 614 482 550 b 528 310 496 486 528 413 l 528 231 b 296 0 528 81 449 0 l 56 0 l 56 972 l 286 972 m 208 438 l 208 139 l 296 139 b 375 235 347 139 375 163 l 375 319 b 276 438 375 410 346 438 m 208 833 l 208 576 l 268 576 b 360 679 325 576 360 601 l 360 733 b 282 833 360 803 336 833 m 325 1157 l 325 1024 l 192 1024 l 192 1157 "},"Ḋ":{"ha":567,"x_min":0,"x_max":0,"o":"m 56 972 l 297 972 b 525 732 450 972 525 888 l 525 240 b 297 0 525 85 450 0 l 56 0 m 208 833 l 208 139 l 294 139 b 372 233 343 139 372 164 l 372 739 b 294 833 372 808 343 833 m 336 1157 l 336 1024 l 203 1024 l 203 1157 "},"ḋ":{"ha":567,"x_min":0,"x_max":0,"o":"m 56 972 l 297 972 b 525 732 450 972 525 888 l 525 240 b 297 0 525 85 450 0 l 56 0 m 208 833 l 208 139 l 294 139 b 372 233 343 139 372 164 l 372 739 b 294 833 372 808 343 833 m 336 1157 l 336 1024 l 203 1024 l 203 1157 "},"Ḟ":{"ha":478,"x_min":0,"x_max":0,"o":"m 208 540 l 406 540 l 406 401 l 208 401 l 208 0 l 56 0 l 56 972 l 460 972 l 460 833 l 208 833 m 319 1157 l 319 1024 l 186 1024 l 186 1157 "},"ḟ":{"ha":478,"x_min":0,"x_max":0,"o":"m 208 540 l 406 540 l 406 401 l 208 401 l 208 0 l 56 0 l 56 972 l 460 972 l 460 833 l 208 833 m 319 1157 l 319 1024 l 186 1024 l 186 1157 "},"Ṁ":{"ha":751,"x_min":0,"x_max":0,"o":"m 379 282 l 483 972 l 696 972 l 696 0 l 551 0 l 551 697 l 446 0 l 301 0 l 188 688 l 188 0 l 54 0 l 54 972 l 267 972 m 442 1157 l 442 1024 l 308 1024 l 308 1157 "},"ṁ":{"ha":751,"x_min":0,"x_max":0,"o":"m 379 282 l 483 972 l 696 972 l 696 0 l 551 0 l 551 697 l 446 0 l 301 0 l 188 688 l 188 0 l 54 0 l 54 972 l 267 972 m 442 1157 l 442 1024 l 308 1024 l 308 1157 "},"Ṗ":{"ha":524,"x_min":0,"x_max":0,"o":"m 281 972 b 508 732 433 972 508 888 l 508 606 b 281 365 508 450 433 365 l 208 365 l 208 0 l 56 0 l 56 972 l 281 972 m 208 833 l 208 504 l 281 504 b 356 596 329 504 356 526 l 356 742 b 281 833 356 811 329 833 m 331 1157 l 331 1024 l 197 1024 l 197 1157 "},"ṗ":{"ha":524,"x_min":0,"x_max":0,"o":"m 281 972 b 508 732 433 972 508 888 l 508 606 b 281 365 508 450 433 365 l 208 365 l 208 0 l 56 0 l 56 972 l 281 972 m 208 833 l 208 504 l 281 504 b 356 596 329 504 356 526 l 356 742 b 281 833 356 811 329 833 m 331 1157 l 331 1024 l 197 1024 l 197 1157 "},"Ṡ":{"ha":519,"x_min":0,"x_max":0,"o":"m 36 739 b 261 983 36 894 113 983 b 486 739 410 983 486 894 l 486 708 l 342 708 l 342 749 b 265 844 342 818 314 844 b 189 749 217 844 189 818 b 488 233 189 549 488 511 b 260 -11 488 78 410 -11 b 32 233 110 -11 32 78 l 32 293 l 176 293 l 176 224 b 256 129 176 154 207 129 b 335 224 304 129 335 154 b 36 739 335 424 36 461 m 326 1157 l 326 1024 l 193 1024 l 193 1157 "},"ṡ":{"ha":519,"x_min":0,"x_max":0,"o":"m 36 739 b 261 983 36 894 113 983 b 486 739 410 983 486 894 l 486 708 l 342 708 l 342 749 b 265 844 342 818 314 844 b 189 749 217 844 189 818 b 488 233 189 549 488 511 b 260 -11 488 78 410 -11 b 32 233 110 -11 32 78 l 32 293 l 176 293 l 176 224 b 256 129 176 154 207 129 b 335 224 304 129 335 154 b 36 739 335 424 36 461 m 326 1157 l 326 1024 l 193 1024 l 193 1157 "},"Ṫ":{"ha":494,"x_min":0,"x_max":0,"o":"m 11 972 l 483 972 l 483 833 l 324 833 l 324 0 l 171 0 l 171 833 l 11 833 m 314 1157 l 314 1024 l 181 1024 l 181 1157 "},"ṫ":{"ha":494,"x_min":0,"x_max":0,"o":"m 11 972 l 483 972 l 483 833 l 324 833 l 324 0 l 171 0 l 171 833 l 11 833 m 314 1157 l 314 1024 l 181 1024 l 181 1157 "},"Ẁ":{"ha":782,"x_min":0,"x_max":0,"o":"m 394 518 l 339 0 l 129 0 l 21 972 l 169 972 l 251 206 l 325 972 l 472 972 l 549 200 l 628 972 l 761 972 l 653 0 l 450 0 m 381 1178 l 475 1024 l 365 1024 l 224 1178 "},"ẁ":{"ha":782,"x_min":0,"x_max":0,"o":"m 394 518 l 339 0 l 129 0 l 21 972 l 169 972 l 251 206 l 325 972 l 472 972 l 549 200 l 628 972 l 761 972 l 653 0 l 450 0 m 381 1178 l 475 1024 l 365 1024 l 224 1178 "},"Ẃ":{"ha":782,"x_min":0,"x_max":0,"o":"m 394 518 l 339 0 l 129 0 l 21 972 l 169 972 l 251 206 l 325 972 l 472 972 l 549 200 l 628 972 l 761 972 l 653 0 l 450 0 m 554 1178 l 413 1024 l 310 1024 l 404 1178 "},"ẃ":{"ha":782,"x_min":0,"x_max":0,"o":"m 394 518 l 339 0 l 129 0 l 21 972 l 169 972 l 251 206 l 325 972 l 472 972 l 549 200 l 628 972 l 761 972 l 653 0 l 450 0 m 554 1178 l 413 1024 l 310 1024 l 404 1178 "},"Ẅ":{"ha":782,"x_min":0,"x_max":0,"o":"m 394 518 l 339 0 l 129 0 l 21 972 l 169 972 l 251 206 l 325 972 l 472 972 l 549 200 l 628 972 l 761 972 l 653 0 l 450 0 m 351 1157 l 351 1024 l 218 1024 l 218 1157 m 563 1157 l 563 1024 l 429 1024 l 429 1157 "},"ẅ":{"ha":782,"x_min":0,"x_max":0,"o":"m 394 518 l 339 0 l 129 0 l 21 972 l 169 972 l 251 206 l 325 972 l 472 972 l 549 200 l 628 972 l 761 972 l 653 0 l 450 0 m 351 1157 l 351 1024 l 218 1024 l 218 1157 m 563 1157 l 563 1024 l 429 1024 l 429 1157 "},"Ỳ":{"ha":550,"x_min":0,"x_max":0,"o":"m 199 322 l 6 972 l 165 972 l 282 529 l 399 972 l 544 972 l 351 322 l 351 0 l 199 0 m 271 1178 l 365 1024 l 256 1024 l 114 1178 "},"ỳ":{"ha":550,"x_min":0,"x_max":0,"o":"m 199 322 l 6 972 l 165 972 l 282 529 l 399 972 l 544 972 l 351 322 l 351 0 l 199 0 m 271 1178 l 365 1024 l 256 1024 l 114 1178 "},"‒":{"ha":550,"x_min":0,"x_max":0,"o":"m 0 549 l 550 549 l 550 424 l 0 424 "},"–":{"ha":694,"x_min":0,"x_max":0,"o":"m 0 549 l 694 549 l 694 424 l 0 424 "},"—":{"ha":1389,"x_min":0,"x_max":0,"o":"m 0 549 l 1389 549 l 1389 424 l 0 424 "},"‘":{"ha":258,"x_min":0,"x_max":0,"o":"m 203 833 l 203 686 l 56 686 l 56 818 l 122 972 l 185 972 l 144 833 "},"’":{"ha":258,"x_min":0,"x_max":0,"o":"m 56 825 l 56 972 l 203 972 l 203 840 l 136 686 l 74 686 l 114 825 "},"‚":{"ha":258,"x_min":0,"x_max":0,"o":"m 56 0 l 56 147 l 203 147 l 203 15 l 136 -139 l 74 -139 l 114 0 "},"“":{"ha":461,"x_min":0,"x_max":0,"o":"m 203 833 l 203 686 l 56 686 l 56 818 l 122 972 l 185 972 l 144 833 m 406 833 l 406 686 l 258 686 l 258 818 l 325 972 l 388 972 l 347 833 "},"”":{"ha":461,"x_min":0,"x_max":0,"o":"m 56 825 l 56 972 l 203 972 l 203 840 l 136 686 l 74 686 l 114 825 m 258 825 l 258 972 l 406 972 l 406 840 l 339 686 l 276 686 l 317 825 "},"„":{"ha":461,"x_min":0,"x_max":0,"o":"m 56 0 l 56 147 l 203 147 l 203 15 l 136 -139 l 74 -139 l 114 0 m 258 0 l 258 147 l 406 147 l 406 15 l 339 -139 l 276 -139 l 317 0 "},"†":{"ha":550,"x_min":0,"x_max":0,"o":"m 35 729 l 213 729 l 213 972 l 338 972 l 338 729 l 515 729 l 515 611 l 338 611 l 338 -90 l 213 -90 l 213 611 l 35 611 "},"‡":{"ha":550,"x_min":0,"x_max":0,"o":"m 35 729 l 213 729 l 213 972 l 338 972 l 338 729 l 515 729 l 515 611 l 338 611 l 338 271 l 515 271 l 515 153 l 338 153 l 338 -90 l 213 -90 l 213 153 l 35 153 l 35 271 l 213 271 l 213 611 l 35 611 "},"•":{"ha":550,"x_min":0,"x_max":0,"o":"m 82 486 b 275 679 82 593 168 679 b 468 486 382 679 468 593 b 275 293 468 379 382 293 b 82 486 168 293 82 379 "},"…":{"ha":664,"x_min":0,"x_max":0,"o":"m 203 147 l 203 0 l 56 0 l 56 147 m 406 147 l 406 0 l 258 0 l 258 147 m 608 147 l 608 0 l 461 0 l 461 147 "},"‰":{"ha":1226,"x_min":0,"x_max":0,"o":"m 144 497 b 194 436 144 454 163 436 b 244 497 225 436 244 454 l 244 831 b 194 892 244 874 225 892 b 144 831 163 892 144 874 m 47 824 b 194 979 47 924 99 979 b 342 824 290 979 342 924 l 342 504 b 194 349 342 404 290 349 b 47 504 99 349 47 404 m 578 972 l 668 972 l 285 0 l 194 0 m 626 142 b 676 81 626 99 644 81 b 726 142 707 81 726 99 l 726 475 b 676 536 726 518 707 536 b 626 475 644 536 626 518 m 529 468 b 676 624 529 568 581 624 b 824 468 772 624 824 568 l 824 149 b 676 -7 824 49 772 -7 b 529 149 581 -7 529 49 m 982 142 b 1032 81 982 99 1000 81 b 1082 142 1063 81 1082 99 l 1082 475 b 1032 536 1082 518 1063 536 b 982 475 1000 536 982 518 m 885 468 b 1032 624 885 568 936 624 b 1179 468 1128 624 1179 568 l 1179 149 b 1032 -7 1179 49 1128 -7 b 885 149 936 -7 885 49 "},"‹":{"ha":272,"x_min":0,"x_max":0,"o":"m 250 857 l 168 488 l 250 96 l 106 96 l 22 488 l 106 857 "},"›":{"ha":272,"x_min":0,"x_max":0,"o":"m 167 857 l 250 488 l 167 96 l 22 96 l 104 488 l 22 857 "},"⁄":{"ha":93,"x_min":0,"x_max":0,"o":"m 193 972 l 283 972 l -100 0 l -190 0 "},"⁰":{"ha":389,"x_min":0,"x_max":0,"o":"m 144 629 b 194 568 144 586 163 568 b 244 629 225 568 244 586 l 244 963 b 194 1024 244 1006 225 1024 b 144 963 163 1024 144 1006 m 47 956 b 194 1111 47 1056 99 1111 b 342 956 290 1111 342 1056 l 342 636 b 194 481 342 536 290 481 b 47 636 99 481 47 536 "},"⁴":{"ha":389,"x_min":0,"x_max":0,"o":"m 33 688 l 210 1104 l 315 1104 l 315 688 l 361 688 l 361 599 l 315 599 l 315 488 l 219 488 l 219 599 l 33 599 m 219 688 l 219 915 l 121 688 "},"⁵":{"ha":389,"x_min":0,"x_max":0,"o":"m 143 685 l 143 628 b 193 568 143 583 163 568 b 243 628 224 568 243 583 l 243 763 b 193 824 243 807 224 824 b 143 763 163 824 143 807 l 143 744 l 51 744 l 69 1103 l 325 1103 l 325 1014 l 156 1014 l 149 867 b 233 913 165 896 194 913 b 340 771 304 913 340 861 l 340 633 b 196 478 340 535 292 478 b 51 633 100 478 51 535 l 51 685 "},"⁶":{"ha":389,"x_min":0,"x_max":0,"o":"m 50 951 b 199 1111 50 1054 97 1111 b 343 956 293 1111 343 1054 l 343 940 l 251 940 l 251 963 b 201 1024 251 1007 232 1024 b 147 947 167 1024 147 1007 l 147 835 b 238 889 164 869 193 889 b 344 749 308 889 344 839 l 344 636 b 197 481 344 538 293 481 b 50 636 101 481 50 538 m 197 801 b 147 740 167 801 147 785 l 147 629 b 197 569 147 585 167 569 b 247 629 228 569 247 585 l 247 740 b 197 801 247 785 228 801 "},"⁷":{"ha":389,"x_min":0,"x_max":0,"o":"m 340 1104 l 340 1019 l 197 488 l 100 488 l 242 1017 l 49 1017 l 49 1104 "},"⁸":{"ha":389,"x_min":0,"x_max":0,"o":"m 346 636 b 194 481 346 538 292 481 b 43 636 97 481 43 538 l 43 683 b 103 813 43 743 61 789 b 43 936 63 835 43 876 l 43 956 b 194 1111 43 1054 97 1111 b 346 956 292 1111 346 1054 l 346 936 b 286 813 346 876 326 835 b 346 683 328 789 346 743 l 346 636 m 140 638 b 194 568 140 583 164 568 b 249 638 225 568 249 583 l 249 696 b 194 765 249 744 229 765 b 140 696 160 765 140 744 l 140 638 m 140 918 b 194 853 140 869 163 853 b 249 918 225 853 249 869 l 249 953 b 194 1024 249 1008 225 1024 b 140 953 164 1024 140 1008 "},"⁹":{"ha":389,"x_min":0,"x_max":0,"o":"m 339 640 b 190 481 339 538 292 481 b 46 636 96 481 46 538 l 46 651 l 138 651 l 138 629 b 188 568 138 585 157 568 b 242 644 222 568 242 585 l 242 757 b 151 703 225 722 196 703 b 44 843 81 703 44 753 l 44 956 b 192 1111 44 1054 96 1111 b 339 956 288 1111 339 1054 m 192 790 b 242 851 222 790 242 807 l 242 963 b 192 1022 242 1007 222 1022 b 142 963 161 1022 142 1007 l 142 851 b 192 790 142 807 161 790 "},"₀":{"ha":389,"x_min":0,"x_max":0,"o":"m 144 51 b 194 -10 144 8 163 -10 b 244 51 225 -10 244 8 l 244 385 b 194 446 244 428 225 446 b 144 385 163 446 144 428 m 47 378 b 194 533 47 478 99 533 b 342 378 290 533 342 478 l 342 58 b 194 -97 342 -42 290 -97 b 47 58 99 -97 47 -42 "},"₁":{"ha":278,"x_min":0,"x_max":0,"o":"m 35 449 b 143 526 110 449 126 485 l 207 526 l 207 -90 l 110 -90 l 110 381 l 35 381 "},"₂":{"ha":389,"x_min":0,"x_max":0,"o":"m 250 378 b 200 447 250 432 231 447 b 150 386 169 447 150 431 l 150 321 l 58 321 l 58 381 b 203 535 58 479 107 535 b 347 381 299 535 347 479 b 156 -3 347 178 136 106 l 339 -3 l 339 -90 l 58 -90 l 58 -15 b 250 378 58 165 250 199 "},"₃":{"ha":389,"x_min":0,"x_max":0,"o":"m 242 108 b 179 186 242 167 222 186 l 146 186 l 146 274 l 183 274 b 242 340 219 274 242 292 l 242 375 b 192 446 242 431 222 446 b 142 385 161 446 142 428 l 142 346 l 50 346 l 50 378 b 194 533 50 478 99 533 b 339 378 290 533 339 478 l 339 363 b 271 236 339 296 318 256 b 339 107 319 215 339 169 l 339 58 b 194 -97 339 -42 290 -97 b 50 58 99 -97 50 -42 l 50 108 l 142 108 l 142 51 b 192 -10 142 8 161 -10 b 242 61 222 -10 242 6 "},"₄":{"ha":389,"x_min":0,"x_max":0,"o":"m 33 110 l 210 526 l 315 526 l 315 110 l 361 110 l 361 21 l 315 21 l 315 -90 l 219 -90 l 219 21 l 33 21 m 219 110 l 219 338 l 121 110 "},"₅":{"ha":389,"x_min":0,"x_max":0,"o":"m 143 107 l 143 50 b 193 -10 143 6 163 -10 b 243 50 224 -10 243 6 l 243 185 b 193 246 243 229 224 246 b 143 185 163 246 143 229 l 143 167 l 51 167 l 69 525 l 325 525 l 325 436 l 156 436 l 149 289 b 233 335 165 318 194 335 b 340 193 304 335 340 283 l 340 56 b 196 -100 340 -43 292 -100 b 51 56 100 -100 51 -43 l 51 107 "},"₆":{"ha":389,"x_min":0,"x_max":0,"o":"m 50 374 b 199 533 50 476 97 533 b 343 378 293 533 343 476 l 343 363 l 251 363 l 251 385 b 201 446 251 429 232 446 b 147 369 167 446 147 429 l 147 257 b 238 311 164 292 193 311 b 344 171 308 311 344 261 l 344 58 b 197 -97 344 -40 293 -97 b 50 58 101 -97 50 -40 m 197 224 b 147 163 167 224 147 207 l 147 51 b 197 -8 147 7 167 -8 b 247 51 228 -8 247 7 l 247 163 b 197 224 247 207 228 224 "},"₇":{"ha":389,"x_min":0,"x_max":0,"o":"m 340 526 l 340 442 l 197 -90 l 100 -90 l 242 439 l 49 439 l 49 526 "},"₈":{"ha":389,"x_min":0,"x_max":0,"o":"m 346 58 b 194 -97 346 -40 292 -97 b 43 58 97 -97 43 -40 l 43 106 b 103 235 43 165 61 211 b 43 358 63 257 43 299 l 43 378 b 194 533 43 476 97 533 b 346 378 292 533 346 476 l 346 358 b 286 235 346 299 326 257 b 346 106 328 211 346 165 l 346 58 m 140 60 b 194 -10 140 6 164 -10 b 249 60 225 -10 249 6 l 249 118 b 194 188 249 167 229 188 b 140 118 160 188 140 167 l 140 60 m 140 340 b 194 275 140 292 163 275 b 249 340 225 275 249 292 l 249 375 b 194 446 249 431 225 446 b 140 375 164 446 140 431 "},"₉":{"ha":389,"x_min":0,"x_max":0,"o":"m 339 63 b 190 -97 339 -40 292 -97 b 46 58 96 -97 46 -40 l 46 74 l 138 74 l 138 51 b 188 -10 138 7 157 -10 b 242 67 222 -10 242 7 l 242 179 b 151 125 225 144 196 125 b 44 265 81 125 44 175 l 44 378 b 192 533 44 476 96 533 b 339 378 288 533 339 476 m 192 213 b 242 274 222 213 242 229 l 242 385 b 192 444 242 429 222 444 b 142 385 161 444 142 429 l 142 274 b 192 213 142 229 161 213 "},"€":{"ha":550,"x_min":0,"x_max":0,"o":"m 26 604 l 65 604 l 65 739 b 289 983 65 894 139 983 b 513 739 439 983 513 894 l 513 668 l 368 668 l 368 749 b 293 844 368 818 342 844 b 218 749 244 844 218 818 l 218 604 l 432 604 l 432 528 l 218 528 l 218 451 l 432 451 l 432 375 l 218 375 l 218 224 b 293 129 218 154 244 129 b 368 224 342 129 368 154 l 368 311 l 513 311 l 513 233 b 289 -11 513 78 439 -11 b 65 233 139 -11 65 78 l 65 375 l 26 375 l 26 451 l 65 451 l 65 528 l 26 528 "},"₹":{"ha":550,"x_min":0,"x_max":0,"o":"m 281 763 b 164 854 281 832 240 854 l 36 854 l 36 972 l 514 972 l 514 854 l 397 854 b 432 763 415 828 426 797 l 514 763 l 514 644 l 432 644 b 206 435 421 513 324 435 l 199 435 l 522 0 l 358 0 l 36 435 l 36 553 l 164 553 b 281 644 240 553 281 575 l 36 644 l 36 763 "},"℗":{"ha":1022,"x_min":0,"x_max":0,"o":"m 28 486 b 511 983 28 775 236 983 b 994 486 786 983 994 775 b 511 -11 994 197 786 -11 b 28 486 236 -11 28 197 m 128 486 b 511 86 128 254 292 86 b 894 486 731 86 894 254 b 511 886 894 718 731 886 b 128 486 292 886 128 718 m 382 771 l 543 771 b 700 615 651 771 700 719 l 700 538 b 543 382 700 433 651 382 l 488 382 l 488 176 l 382 176 m 594 603 b 538 674 594 651 578 674 l 488 674 l 488 479 l 538 479 b 594 550 578 479 594 501 "},"™":{"ha":814,"x_min":0,"x_max":0,"o":"m 579 625 l 644 972 l 779 972 l 779 478 l 688 478 l 688 829 l 622 478 l 531 478 l 457 826 l 457 478 l 372 478 l 372 972 l 507 972 m 14 972 l 314 972 l 314 883 l 213 883 l 213 478 l 115 478 l 115 883 l 14 883 "},"⅓":{"ha":871,"x_min":0,"x_max":0,"o":"m 90 894 b 199 972 165 894 182 931 l 263 972 l 263 356 l 165 356 l 165 826 l 90 826 m 724 199 b 661 276 724 257 704 276 l 628 276 l 628 364 l 665 364 b 724 431 701 364 724 382 l 724 465 b 674 536 724 521 704 536 b 624 475 643 536 624 518 l 624 436 l 532 436 l 532 468 b 676 624 532 568 581 624 b 821 468 772 624 821 568 l 821 453 b 753 326 821 386 800 346 b 821 197 801 306 821 260 l 821 149 b 676 -7 821 49 772 -7 b 532 149 581 -7 532 49 l 532 199 l 624 199 l 624 142 b 674 81 624 99 643 81 b 724 151 704 81 724 96 m 564 972 l 654 972 l 271 0 l 181 0 "},"⅔":{"ha":871,"x_min":0,"x_max":0,"o":"m 250 822 b 200 892 250 876 231 892 b 150 831 169 892 150 875 l 150 765 l 58 765 l 58 825 b 203 979 58 924 107 979 b 347 825 299 979 347 924 b 156 442 347 622 136 550 l 339 442 l 339 354 l 58 354 l 58 429 b 250 822 58 610 250 643 m 596 972 l 686 972 l 303 0 l 213 0 m 724 199 b 661 276 724 257 704 276 l 628 276 l 628 364 l 665 364 b 724 431 701 364 724 382 l 724 465 b 674 536 724 521 704 536 b 624 475 643 536 624 518 l 624 436 l 532 436 l 532 468 b 676 624 532 568 581 624 b 821 468 772 624 821 568 l 821 453 b 753 326 821 386 800 346 b 821 197 801 306 821 260 l 821 149 b 676 -7 821 49 772 -7 b 532 149 581 -7 532 49 l 532 199 l 624 199 l 624 142 b 674 81 624 99 643 81 b 724 151 704 81 724 96 "},"⅛":{"ha":871,"x_min":0,"x_max":0,"o":"m 90 894 b 199 972 165 894 182 931 l 263 972 l 263 356 l 165 356 l 165 826 l 90 826 m 828 149 b 676 -7 828 50 774 -7 b 525 149 579 -7 525 50 l 525 196 b 585 325 525 256 543 301 b 525 449 544 347 525 389 l 525 468 b 676 624 525 567 579 624 b 828 468 774 624 828 567 l 828 449 b 768 325 828 389 808 347 b 828 196 810 301 828 256 l 828 149 m 622 150 b 676 81 622 96 646 81 b 731 150 707 81 731 96 l 731 208 b 676 278 731 257 711 278 b 622 208 642 278 622 257 l 622 150 m 622 431 b 676 365 622 382 644 365 b 731 431 707 365 731 382 l 731 465 b 676 536 731 521 707 536 b 622 465 646 536 622 521 m 564 972 l 654 972 l 271 0 l 181 0 "},"⅜":{"ha":871,"x_min":0,"x_max":0,"o":"m 242 554 b 179 632 242 613 222 632 l 146 632 l 146 719 l 183 719 b 242 786 219 719 242 738 l 242 821 b 192 892 242 876 222 892 b 142 831 161 892 142 874 l 142 792 l 50 792 l 50 824 b 194 979 50 924 99 979 b 339 824 290 979 339 924 l 339 808 b 271 682 339 742 318 701 b 339 553 319 661 339 615 l 339 504 b 194 349 339 404 290 349 b 50 504 99 349 50 404 l 50 554 l 142 554 l 142 497 b 192 436 142 454 161 436 b 242 507 222 436 242 451 m 582 972 l 672 972 l 289 0 l 199 0 m 828 149 b 676 -7 828 50 774 -7 b 525 149 579 -7 525 50 l 525 196 b 585 325 525 256 543 301 b 525 449 544 347 525 389 l 525 468 b 676 624 525 567 579 624 b 828 468 774 624 828 567 l 828 449 b 768 325 828 389 808 347 b 828 196 810 301 828 256 l 828 149 m 622 150 b 676 81 622 96 646 81 b 731 150 707 81 731 96 l 731 208 b 676 278 731 257 711 278 b 622 208 642 278 622 257 l 622 150 m 622 431 b 676 365 622 382 644 365 b 731 431 707 365 731 382 l 731 465 b 676 536 731 521 707 536 b 622 465 646 536 622 521 "},"⅝":{"ha":871,"x_min":0,"x_max":0,"o":"m 143 553 l 143 496 b 193 436 143 451 163 436 b 243 496 224 436 243 451 l 243 631 b 193 692 243 675 224 692 b 143 631 163 692 143 675 l 143 613 l 51 613 l 69 971 l 325 971 l 325 882 l 156 882 l 149 735 b 233 781 165 764 194 781 b 340 639 304 781 340 729 l 340 501 b 196 346 340 403 292 346 b 51 501 100 346 51 403 l 51 553 m 582 972 l 672 972 l 289 0 l 199 0 m 828 149 b 676 -7 828 50 774 -7 b 525 149 579 -7 525 50 l 525 196 b 585 325 525 256 543 301 b 525 449 544 347 525 389 l 525 468 b 676 624 525 567 579 624 b 828 468 774 624 828 567 l 828 449 b 768 325 828 389 808 347 b 828 196 810 301 828 256 l 828 149 m 622 150 b 676 81 622 96 646 81 b 731 150 707 81 731 96 l 731 208 b 676 278 731 257 711 278 b 622 208 642 278 622 257 l 622 150 m 622 431 b 676 365 622 382 644 365 b 731 431 707 365 731 382 l 731 465 b 676 536 731 521 707 536 b 622 465 646 536 622 521 "},"⅞":{"ha":871,"x_min":0,"x_max":0,"o":"m 340 972 l 340 888 l 197 356 l 100 356 l 242 885 l 49 885 l 49 972 m 540 972 l 631 972 l 247 0 l 157 0 m 828 149 b 676 -7 828 50 774 -7 b 525 149 579 -7 525 50 l 525 196 b 585 325 525 256 543 301 b 525 449 544 347 525 389 l 525 468 b 676 624 525 567 579 624 b 828 468 774 624 828 567 l 828 449 b 768 325 828 389 808 347 b 828 196 810 301 828 256 l 828 149 m 622 150 b 676 81 622 96 646 81 b 731 150 707 81 731 96 l 731 208 b 676 278 731 257 711 278 b 622 208 642 278 622 257 l 622 150 m 622 431 b 676 365 622 382 644 365 b 731 431 707 365 731 382 l 731 465 b 676 536 731 521 707 536 b 622 465 646 536 622 521 "},"−":{"ha":550,"x_min":0,"x_max":0,"o":"m 515 540 l 515 432 l 35 432 l 35 540 "},"∞":{"ha":833,"x_min":0,"x_max":0,"o":"m 250 300 b 53 486 126 300 53 364 b 250 672 53 608 126 672 l 264 672 b 425 601 339 672 396 654 b 581 672 451 651 506 672 l 597 672 b 792 486 721 672 792 608 b 597 300 792 364 721 300 l 581 300 b 425 371 506 300 451 322 b 264 300 396 318 339 300 l 250 300 m 251 568 b 160 486 176 568 160 529 b 251 406 160 443 176 407 l 279 406 b 374 486 346 406 374 439 b 279 568 374 533 346 568 l 251 568 m 564 568 b 472 486 489 568 472 529 b 564 406 472 443 489 407 l 592 406 b 686 486 658 406 686 439 b 592 568 686 533 658 568 l 564 568 "},"≈":{"ha":550,"x_min":0,"x_max":0,"o":"m 11 346 b 176 471 78 444 124 471 b 375 386 251 471 317 386 b 467 465 407 386 424 406 l 539 390 b 374 271 472 292 426 271 b 175 356 299 271 233 356 b 83 276 143 356 125 336 m 11 576 b 176 701 78 675 124 701 b 375 617 251 701 317 617 b 467 696 407 617 424 636 l 539 621 b 374 501 472 522 426 501 b 175 586 299 501 233 586 b 83 507 143 586 125 567 "},"Ё":{"ha":511,"x_min":0,"x_max":0,"o":"m 208 563 l 418 563 l 418 424 l 208 424 l 208 139 l 472 139 l 472 0 l 56 0 l 56 972 l 472 972 l 472 833 l 208 833 m 224 1157 l 224 1024 l 90 1024 l 90 1157 m 435 1157 l 435 1024 l 301 1024 l 301 1157 "},"ё":{"ha":511,"x_min":0,"x_max":0,"o":"m 208 563 l 418 563 l 418 424 l 208 424 l 208 139 l 472 139 l 472 0 l 56 0 l 56 972 l 472 972 l 472 833 l 208 833 m 224 1157 l 224 1024 l 90 1024 l 90 1157 m 435 1157 l 435 1024 l 301 1024 l 301 1157 "},"А":{"ha":565,"x_min":0,"x_max":0,"o":"m 550 0 l 396 0 l 369 176 l 182 176 l 156 0 l 15 0 l 171 972 l 394 972 m 201 308 l 349 308 l 275 800 "},"Б":{"ha":576,"x_min":0,"x_max":0,"o":"m 57 0 l 57 972 l 485 972 l 485 833 l 210 833 l 210 585 l 299 585 b 529 344 451 585 529 500 l 529 240 b 299 0 529 85 451 0 m 299 139 b 376 231 347 139 376 161 l 376 354 b 299 446 376 424 347 446 l 210 446 l 210 139 "},"В":{"ha":564,"x_min":0,"x_max":0,"o":"m 286 972 b 513 749 444 972 513 899 l 513 714 b 414 518 513 614 482 550 b 528 310 496 486 528 413 l 528 231 b 296 0 528 81 449 0 l 56 0 l 56 972 l 286 972 m 208 438 l 208 139 l 296 139 b 375 235 347 139 375 163 l 375 319 b 276 438 375 410 346 438 m 208 833 l 208 576 l 268 576 b 360 679 325 576 360 601 l 360 733 b 282 833 360 803 336 833 "},"Г":{"ha":507,"x_min":0,"x_max":0,"o":"m 57 0 l 57 972 l 460 972 l 460 833 l 210 833 l 210 0 "},"Д":{"ha":678,"x_min":0,"x_max":0,"o":"m 497 -131 l 497 0 l 171 0 l 171 -131 l 22 -131 l 22 136 l 82 136 b 119 263 108 169 117 206 l 154 972 l 582 972 l 582 136 l 649 136 l 649 -131 m 269 265 b 226 136 265 192 251 160 l 426 136 l 426 833 l 297 833 "},"Е":{"ha":511,"x_min":0,"x_max":0,"o":"m 208 563 l 418 563 l 418 424 l 208 424 l 208 139 l 472 139 l 472 0 l 56 0 l 56 972 l 472 972 l 472 833 l 208 833 "},"Ж":{"ha":839,"x_min":0,"x_max":0,"o":"m 496 579 l 676 972 l 829 972 l 642 578 l 829 0 l 672 0 l 533 431 l 496 357 l 496 0 l 344 0 l 344 357 l 307 432 l 168 0 l 11 0 l 200 574 l 11 972 l 164 972 l 344 579 l 344 972 l 496 972 "},"З":{"ha":550,"x_min":0,"x_max":0,"o":"m 350 733 b 271 844 350 821 319 844 b 190 749 222 844 190 818 l 190 669 l 50 669 l 50 742 b 275 983 50 897 125 983 b 503 739 425 983 503 894 l 503 714 b 396 514 503 610 469 544 b 503 310 472 481 503 408 l 503 233 b 275 -11 503 78 425 -11 b 47 233 125 -11 47 78 l 47 340 l 192 340 l 192 224 b 271 128 192 154 222 128 b 350 238 319 128 350 151 l 350 314 b 250 438 350 404 319 438 l 213 438 l 213 576 l 258 576 b 350 679 315 576 350 601 "},"И":{"ha":593,"x_min":0,"x_max":0,"o":"m 213 0 l 56 0 l 56 972 l 192 972 l 192 357 l 247 571 l 372 972 l 540 972 l 540 0 l 403 0 l 403 685 l 340 446 "},"Й":{"ha":596,"x_min":0,"x_max":0,"o":"m 340 446 l 403 685 l 403 0 l 540 0 l 540 972 l 372 972 l 247 571 l 192 357 l 192 972 l 56 972 l 56 0 l 213 0 m 369 1189 l 463 1189 b 300 1035 463 1094 408 1035 b 140 1189 193 1035 143 1094 l 235 1189 b 300 1125 239 1138 260 1125 b 369 1189 342 1125 365 1138 "},"К":{"ha":575,"x_min":0,"x_max":0,"o":"m 256 388 l 208 299 l 208 0 l 56 0 l 56 972 l 208 972 l 208 549 l 408 972 l 561 972 l 349 539 l 561 0 l 404 0 "},"Л":{"ha":625,"x_min":0,"x_max":0,"o":"m 13 138 b 107 238 82 138 104 147 l 132 972 l 564 972 l 564 0 l 408 0 l 408 833 l 275 833 l 258 246 b 36 -1 253 68 189 -1 l 13 -1 "},"М":{"ha":751,"x_min":0,"x_max":0,"o":"m 379 282 l 483 972 l 696 972 l 696 0 l 551 0 l 551 697 l 446 0 l 301 0 l 188 688 l 188 0 l 54 0 l 54 972 l 267 972 "},"Н":{"ha":593,"x_min":0,"x_max":0,"o":"m 208 0 l 56 0 l 56 972 l 208 972 l 208 556 l 382 556 l 382 972 l 538 972 l 538 0 l 382 0 l 382 417 l 208 417 "},"О":{"ha":550,"x_min":0,"x_max":0,"o":"m 196 224 b 275 128 196 154 226 128 b 354 224 324 128 354 154 l 354 749 b 275 844 354 818 324 844 b 196 749 226 844 196 818 m 43 739 b 275 983 43 894 125 983 b 507 739 425 983 507 894 l 507 233 b 275 -11 507 78 425 -11 b 43 233 125 -11 43 78 "},"П":{"ha":593,"x_min":0,"x_max":0,"o":"m 208 0 l 56 0 l 56 972 l 538 972 l 538 0 l 382 0 l 382 833 l 208 833 "},"Р":{"ha":524,"x_min":0,"x_max":0,"o":"m 281 972 b 508 732 433 972 508 888 l 508 606 b 281 365 508 450 433 365 l 208 365 l 208 0 l 56 0 l 56 972 l 281 972 m 208 833 l 208 504 l 281 504 b 356 596 329 504 356 526 l 356 742 b 281 833 356 811 329 833 "},"С":{"ha":536,"x_min":0,"x_max":0,"o":"m 499 363 l 499 233 b 271 -11 499 78 421 -11 b 43 233 121 -11 43 78 l 43 739 b 271 983 43 894 121 983 b 499 739 421 983 499 894 l 499 644 l 354 644 l 354 749 b 275 844 354 818 324 844 b 196 749 226 844 196 818 l 196 224 b 275 129 196 154 226 129 b 354 224 324 129 354 154 l 354 363 "},"Т":{"ha":494,"x_min":0,"x_max":0,"o":"m 11 972 l 483 972 l 483 833 l 324 833 l 324 0 l 171 0 l 171 833 l 11 833 "},"У":{"ha":567,"x_min":0,"x_max":0,"o":"m 394 247 b 86 -1 358 72 299 -15 l 86 135 b 221 214 164 129 208 143 l 222 222 l 11 972 l 163 972 l 246 640 l 293 413 l 329 639 l 399 972 l 558 972 "},"Ф":{"ha":810,"x_min":0,"x_max":0,"o":"m 328 110 l 271 110 b 43 350 118 110 43 194 l 43 615 b 271 856 43 771 118 856 l 328 856 l 328 972 l 478 972 l 478 856 l 535 856 b 763 615 688 856 763 771 l 763 350 b 535 110 763 194 688 110 l 478 110 l 478 0 l 328 0 m 478 721 l 478 243 l 535 243 b 611 340 583 243 611 271 l 611 625 b 535 721 611 694 583 721 m 328 721 l 271 721 b 194 625 222 721 194 694 l 194 340 b 271 243 194 271 222 243 l 328 243 "},"Х":{"ha":597,"x_min":0,"x_max":0,"o":"m 565 972 l 406 500 l 576 0 l 415 0 l 290 385 l 164 0 l 21 0 l 192 500 l 32 972 l 190 972 l 306 614 l 424 972 "},"Ц":{"ha":632,"x_min":0,"x_max":0,"o":"m 56 972 l 208 972 l 208 139 l 382 139 l 382 972 l 538 972 l 538 136 l 604 136 l 604 -131 l 456 -131 l 456 0 l 56 0 "},"Ч":{"ha":576,"x_min":0,"x_max":0,"o":"m 519 972 l 519 0 l 367 0 l 367 392 b 236 338 333 356 278 338 b 46 561 111 338 46 428 l 46 972 l 199 972 l 199 574 b 288 478 199 508 239 478 b 367 578 336 478 367 513 l 367 972 "},"Ш":{"ha":833,"x_min":0,"x_max":0,"o":"m 56 0 l 56 972 l 208 972 l 208 139 l 340 139 l 340 972 l 493 972 l 493 139 l 625 139 l 625 972 l 778 972 l 778 0 "},"Щ":{"ha":874,"x_min":0,"x_max":0,"o":"m 778 136 l 846 136 l 846 -131 l 697 -131 l 697 0 l 56 0 l 56 972 l 208 972 l 208 139 l 340 139 l 340 972 l 493 972 l 493 139 l 625 139 l 625 972 l 778 972 "},"Ъ":{"ha":610,"x_min":0,"x_max":0,"o":"m 11 972 l 274 972 l 274 607 l 346 607 b 574 367 499 607 574 522 l 574 240 b 346 0 574 85 499 0 l 121 0 l 121 833 l 11 833 m 346 139 b 421 231 394 139 421 161 l 421 376 b 346 468 421 446 394 468 l 274 468 l 274 139 "},"Ы":{"ha":804,"x_min":0,"x_max":0,"o":"m 56 0 l 56 972 l 208 972 l 208 607 l 281 607 b 508 367 433 607 508 522 l 508 240 b 281 0 508 85 433 0 m 281 139 b 356 231 329 139 356 161 l 356 376 b 281 468 356 446 329 468 l 208 468 l 208 139 m 596 0 l 596 972 l 749 972 l 749 0 "},"Ь":{"ha":544,"x_min":0,"x_max":0,"o":"m 56 0 l 56 972 l 208 972 l 208 607 l 281 607 b 508 367 433 607 508 522 l 508 240 b 281 0 508 85 433 0 m 281 139 b 356 231 329 139 356 161 l 356 376 b 281 468 356 446 329 468 l 208 468 l 208 139 "},"Э":{"ha":536,"x_min":0,"x_max":0,"o":"m 181 349 l 181 224 b 260 129 181 154 211 129 b 339 224 308 129 339 154 l 339 433 l 199 433 l 199 572 l 339 572 l 339 749 b 260 844 339 818 308 844 b 181 749 211 844 181 818 l 181 657 l 39 657 l 39 739 b 264 983 39 894 114 983 b 492 739 414 983 492 894 l 492 233 b 264 -11 492 78 414 -11 b 36 233 114 -11 36 78 l 36 349 "},"Ю":{"ha":832,"x_min":0,"x_max":0,"o":"m 322 417 l 208 417 l 208 0 l 56 0 l 56 972 l 208 972 l 208 556 l 322 556 l 322 739 b 554 983 322 894 404 983 b 786 739 704 983 786 894 l 786 233 b 554 -11 786 78 704 -11 b 322 233 404 -11 322 78 m 475 224 b 554 128 475 154 506 128 b 633 224 603 128 633 154 l 633 749 b 554 844 633 818 603 844 b 475 749 506 844 475 818 "},"Я":{"ha":558,"x_min":0,"x_max":0,"o":"m 28 0 b 44 118 43 36 44 71 l 44 268 b 146 475 44 369 69 443 b 46 672 78 507 46 572 l 46 749 b 272 972 46 899 114 972 l 503 972 l 503 0 l 350 0 l 350 396 l 297 396 b 197 272 228 396 197 363 l 197 119 b 183 0 197 40 192 25 m 276 833 b 199 733 222 833 199 803 l 199 638 b 290 535 199 560 233 535 l 350 535 l 350 833 "},"а":{"ha":565,"x_min":0,"x_max":0,"o":"m 550 0 l 396 0 l 369 176 l 182 176 l 156 0 l 15 0 l 171 972 l 394 972 m 201 308 l 349 308 l 275 800 "},"б":{"ha":576,"x_min":0,"x_max":0,"o":"m 57 0 l 57 972 l 485 972 l 485 833 l 210 833 l 210 585 l 299 585 b 529 344 451 585 529 500 l 529 240 b 299 0 529 85 451 0 m 299 139 b 376 231 347 139 376 161 l 376 354 b 299 446 376 424 347 446 l 210 446 l 210 139 "},"в":{"ha":564,"x_min":0,"x_max":0,"o":"m 286 972 b 513 749 444 972 513 899 l 513 714 b 414 518 513 614 482 550 b 528 310 496 486 528 413 l 528 231 b 296 0 528 81 449 0 l 56 0 l 56 972 l 286 972 m 208 438 l 208 139 l 296 139 b 375 235 347 139 375 163 l 375 319 b 276 438 375 410 346 438 m 208 833 l 208 576 l 268 576 b 360 679 325 576 360 601 l 360 733 b 282 833 360 803 336 833 "},"г":{"ha":507,"x_min":0,"x_max":0,"o":"m 57 0 l 57 972 l 460 972 l 460 833 l 210 833 l 210 0 "},"д":{"ha":678,"x_min":0,"x_max":0,"o":"m 497 -131 l 497 0 l 171 0 l 171 -131 l 22 -131 l 22 136 l 82 136 b 119 263 108 169 117 206 l 154 972 l 582 972 l 582 136 l 649 136 l 649 -131 m 269 265 b 226 136 265 192 251 160 l 426 136 l 426 833 l 297 833 "},"е":{"ha":511,"x_min":0,"x_max":0,"o":"m 208 563 l 418 563 l 418 424 l 208 424 l 208 139 l 472 139 l 472 0 l 56 0 l 56 972 l 472 972 l 472 833 l 208 833 "},"ж":{"ha":839,"x_min":0,"x_max":0,"o":"m 496 579 l 676 972 l 829 972 l 642 578 l 829 0 l 672 0 l 533 431 l 496 357 l 496 0 l 344 0 l 344 357 l 307 432 l 168 0 l 11 0 l 200 574 l 11 972 l 164 972 l 344 579 l 344 972 l 496 972 "},"з":{"ha":550,"x_min":0,"x_max":0,"o":"m 350 733 b 271 844 350 821 319 844 b 190 749 222 844 190 818 l 190 669 l 50 669 l 50 742 b 275 983 50 897 125 983 b 503 739 425 983 503 894 l 503 714 b 396 514 503 610 469 544 b 503 310 472 481 503 408 l 503 233 b 275 -11 503 78 425 -11 b 47 233 125 -11 47 78 l 47 340 l 192 340 l 192 224 b 271 128 192 154 222 128 b 350 238 319 128 350 151 l 350 314 b 250 438 350 404 319 438 l 213 438 l 213 576 l 258 576 b 350 679 315 576 350 601 "},"и":{"ha":593,"x_min":0,"x_max":0,"o":"m 213 0 l 56 0 l 56 972 l 192 972 l 192 357 l 247 571 l 372 972 l 540 972 l 540 0 l 403 0 l 403 685 l 340 446 "},"й":{"ha":596,"x_min":0,"x_max":0,"o":"m 340 446 l 403 685 l 403 0 l 540 0 l 540 972 l 372 972 l 247 571 l 192 357 l 192 972 l 56 972 l 56 0 l 213 0 m 369 1189 l 463 1189 b 300 1035 463 1094 408 1035 b 140 1189 193 1035 143 1094 l 235 1189 b 300 1125 239 1138 260 1125 b 369 1189 342 1125 365 1138 "},"к":{"ha":575,"x_min":0,"x_max":0,"o":"m 256 388 l 208 299 l 208 0 l 56 0 l 56 972 l 208 972 l 208 549 l 408 972 l 561 972 l 349 539 l 561 0 l 404 0 "},"л":{"ha":625,"x_min":0,"x_max":0,"o":"m 13 138 b 107 238 82 138 104 147 l 132 972 l 564 972 l 564 0 l 408 0 l 408 833 l 275 833 l 258 246 b 36 -1 253 68 189 -1 l 13 -1 "},"м":{"ha":751,"x_min":0,"x_max":0,"o":"m 379 282 l 483 972 l 696 972 l 696 0 l 551 0 l 551 697 l 446 0 l 301 0 l 188 688 l 188 0 l 54 0 l 54 972 l 267 972 "},"н":{"ha":593,"x_min":0,"x_max":0,"o":"m 208 0 l 56 0 l 56 972 l 208 972 l 208 556 l 382 556 l 382 972 l 538 972 l 538 0 l 382 0 l 382 417 l 208 417 "},"о":{"ha":550,"x_min":0,"x_max":0,"o":"m 196 224 b 275 128 196 154 226 128 b 354 224 324 128 354 154 l 354 749 b 275 844 354 818 324 844 b 196 749 226 844 196 818 m 43 739 b 275 983 43 894 125 983 b 507 739 425 983 507 894 l 507 233 b 275 -11 507 78 425 -11 b 43 233 125 -11 43 78 "},"п":{"ha":593,"x_min":0,"x_max":0,"o":"m 208 0 l 56 0 l 56 972 l 538 972 l 538 0 l 382 0 l 382 833 l 208 833 "},"р":{"ha":524,"x_min":0,"x_max":0,"o":"m 281 972 b 508 732 433 972 508 888 l 508 606 b 281 365 508 450 433 365 l 208 365 l 208 0 l 56 0 l 56 972 l 281 972 m 208 833 l 208 504 l 281 504 b 356 596 329 504 356 526 l 356 742 b 281 833 356 811 329 833 "},"с":{"ha":536,"x_min":0,"x_max":0,"o":"m 499 363 l 499 233 b 271 -11 499 78 421 -11 b 43 233 121 -11 43 78 l 43 739 b 271 983 43 894 121 983 b 499 739 421 983 499 894 l 499 644 l 354 644 l 354 749 b 275 844 354 818 324 844 b 196 749 226 844 196 818 l 196 224 b 275 129 196 154 226 129 b 354 224 324 129 354 154 l 354 363 "},"т":{"ha":494,"x_min":0,"x_max":0,"o":"m 11 972 l 483 972 l 483 833 l 324 833 l 324 0 l 171 0 l 171 833 l 11 833 "},"у":{"ha":567,"x_min":0,"x_max":0,"o":"m 394 247 b 86 -1 358 72 299 -15 l 86 135 b 221 214 164 129 208 143 l 222 222 l 11 972 l 163 972 l 246 640 l 293 413 l 329 639 l 399 972 l 558 972 "},"ф":{"ha":810,"x_min":0,"x_max":0,"o":"m 328 110 l 271 110 b 43 350 118 110 43 194 l 43 615 b 271 856 43 771 118 856 l 328 856 l 328 972 l 478 972 l 478 856 l 535 856 b 763 615 688 856 763 771 l 763 350 b 535 110 763 194 688 110 l 478 110 l 478 0 l 328 0 m 478 721 l 478 243 l 535 243 b 611 340 583 243 611 271 l 611 625 b 535 721 611 694 583 721 m 328 721 l 271 721 b 194 625 222 721 194 694 l 194 340 b 271 243 194 271 222 243 l 328 243 "},"х":{"ha":597,"x_min":0,"x_max":0,"o":"m 565 972 l 406 500 l 576 0 l 415 0 l 290 385 l 164 0 l 21 0 l 192 500 l 32 972 l 190 972 l 306 614 l 424 972 "},"ц":{"ha":632,"x_min":0,"x_max":0,"o":"m 56 972 l 208 972 l 208 139 l 382 139 l 382 972 l 538 972 l 538 136 l 604 136 l 604 -131 l 456 -131 l 456 0 l 56 0 "},"ч":{"ha":576,"x_min":0,"x_max":0,"o":"m 519 972 l 519 0 l 367 0 l 367 392 b 236 338 333 356 278 338 b 46 561 111 338 46 428 l 46 972 l 199 972 l 199 574 b 288 478 199 508 239 478 b 367 578 336 478 367 513 l 367 972 "},"ш":{"ha":833,"x_min":0,"x_max":0,"o":"m 56 0 l 56 972 l 208 972 l 208 139 l 340 139 l 340 972 l 493 972 l 493 139 l 625 139 l 625 972 l 778 972 l 778 0 "},"щ":{"ha":874,"x_min":0,"x_max":0,"o":"m 778 136 l 846 136 l 846 -131 l 697 -131 l 697 0 l 56 0 l 56 972 l 208 972 l 208 139 l 340 139 l 340 972 l 493 972 l 493 139 l 625 139 l 625 972 l 778 972 "},"ъ":{"ha":610,"x_min":0,"x_max":0,"o":"m 11 972 l 274 972 l 274 607 l 346 607 b 574 367 499 607 574 522 l 574 240 b 346 0 574 85 499 0 l 121 0 l 121 833 l 11 833 m 346 139 b 421 231 394 139 421 161 l 421 376 b 346 468 421 446 394 468 l 274 468 l 274 139 "},"ы":{"ha":804,"x_min":0,"x_max":0,"o":"m 56 0 l 56 972 l 208 972 l 208 607 l 281 607 b 508 367 433 607 508 522 l 508 240 b 281 0 508 85 433 0 m 281 139 b 356 231 329 139 356 161 l 356 376 b 281 468 356 446 329 468 l 208 468 l 208 139 m 596 0 l 596 972 l 749 972 l 749 0 "},"ь":{"ha":544,"x_min":0,"x_max":0,"o":"m 56 0 l 56 972 l 208 972 l 208 607 l 281 607 b 508 367 433 607 508 522 l 508 240 b 281 0 508 85 433 0 m 281 139 b 356 231 329 139 356 161 l 356 376 b 281 468 356 446 329 468 l 208 468 l 208 139 "},"э":{"ha":536,"x_min":0,"x_max":0,"o":"m 181 349 l 181 224 b 260 129 181 154 211 129 b 339 224 308 129 339 154 l 339 433 l 199 433 l 199 572 l 339 572 l 339 749 b 260 844 339 818 308 844 b 181 749 211 844 181 818 l 181 657 l 39 657 l 39 739 b 264 983 39 894 114 983 b 492 739 414 983 492 894 l 492 233 b 264 -11 492 78 414 -11 b 36 233 114 -11 36 78 l 36 349 "},"ю":{"ha":832,"x_min":0,"x_max":0,"o":"m 322 417 l 208 417 l 208 0 l 56 0 l 56 972 l 208 972 l 208 556 l 322 556 l 322 739 b 554 983 322 894 404 983 b 786 739 704 983 786 894 l 786 233 b 554 -11 786 78 704 -11 b 322 233 404 -11 322 78 m 475 224 b 554 128 475 154 506 128 b 633 224 603 128 633 154 l 633 749 b 554 844 633 818 603 844 b 475 749 506 844 475 818 "},"я":{"ha":558,"x_min":0,"x_max":0,"o":"m 28 0 b 44 118 43 36 44 71 l 44 268 b 146 475 44 369 69 443 b 46 672 78 507 46 572 l 46 749 b 272 972 46 899 114 972 l 503 972 l 503 0 l 350 0 l 350 396 l 297 396 b 197 272 228 396 197 363 l 197 119 b 183 0 197 40 192 25 m 276 833 b 199 733 222 833 199 803 l 199 638 b 290 535 199 560 233 535 l 350 535 l 350 833 "},"\"":{"ha":451,"x_min":0,"x_max":0,"o":"m 56 972 l 203 972 l 181 686 l 76 686 m 249 972 l 396 972 l 374 686 l 269 686 "},"!":{"ha":264,"x_min":0,"x_max":0,"o":"m 75 215 l 56 567 l 56 972 l 208 972 l 208 567 l 189 215 m 206 147 l 206 0 l 58 0 l 58 147 "}}}
